<svg xmlns="http://www.w3.org/2000/svg" xmlns:xlink="http://www.w3.org/1999/xlink" viewBox="0 0 430 430" width="430" height="430" style="width: 100%; height: 100%; transform: translate3d(0px, 0px, 0px);" preserveAspectRatio="xMidYMid meet"><defs><clipPath id="__lottie_element_10"><rect width="430" height="430" x="0" y="0"/></clipPath><clipPath id="__lottie_element_12"><path d="M0,0 L430,0 L430,430 L0,430z"/></clipPath><g id="__lottie_element_25"><g style="display: block;" transform="matrix(1,0,0,1,367.239990234375,254.21499633789062)" opacity="1"><g opacity="1" transform="matrix(1,0,0,1,9,100.5)"><path fill="rgb(255,0,0)" fill-opacity="1" d=" M0,36.40800094604492 C0,36.40800094604492 0.4339999854564667,-391.2200012207031 0.4339999854564667,-391.2200012207031 C0.4339999854564667,-391.2200012207031 91.62699890136719,-391.2250061035156 91.62699890136719,-391.2250061035156 C91.62699890136719,-391.2250061035156 91.62699890136719,113.21499633789062 91.62699890136719,113.21499633789062 C91.62699890136719,113.21499633789062 -209.75999450683594,113.22000122070312 -209.75999450683594,113.22000122070312 C-209.75999450683594,113.22000122070312 -210.1929931640625,39.40800094604492 -210.1929931640625,39.40800094604492 C-210.1929931640625,39.40800094604492 -3,39.40800094604492 -3,39.40800094604492 C-1.343000054359436,39.40800094604492 0,38.064998626708984 0,36.40800094604492z"/></g></g></g><g id="__lottie_element_31"><g style="display: block;" transform="matrix(1,0,0,1,367.239990234375,254.21499633789062)" opacity="1"><g opacity="1" transform="matrix(1,0,0,1,9,100.5)"><path fill="rgb(255,0,0)" fill-opacity="1" d=" M0,36.40800094604492 C0,36.40800094604492 0.4339999854564667,-391.2200012207031 0.4339999854564667,-391.2200012207031 C0.4339999854564667,-391.2200012207031 91.62699890136719,-391.2250061035156 91.62699890136719,-391.2250061035156 C91.62699890136719,-391.2250061035156 91.62699890136719,113.21499633789062 91.62699890136719,113.21499633789062 C91.62699890136719,113.21499633789062 -209.75999450683594,113.22000122070312 -209.75999450683594,113.22000122070312 C-209.75999450683594,113.22000122070312 -210.1929931640625,39.40800094604492 -210.1929931640625,39.40800094604492 C-210.1929931640625,39.40800094604492 -3,39.40800094604492 -3,39.40800094604492 C-1.343000054359436,39.40800094604492 0,38.064998626708984 0,36.40800094604492z"/></g></g></g><g id="__lottie_element_37"><g style="display: block;" transform="matrix(1,0,0,1,51.632999420166016,354.7430114746094)" opacity="1"><g opacity="1" transform="matrix(1,0,0,1,0,0)"><path fill="rgb(255,0,0)" fill-opacity="1" d=" M0,36.40800094604492 C0,36.40800094604492 -0.10199999809265137,-391.7200012207031 -0.10199999809265137,-391.7200012207031 C-0.10199999809265137,-391.7200012207031 -87.2959976196289,-391.83099365234375 -87.2959976196289,-391.83099365234375 C-87.2959976196289,-391.83099365234375 -87.36699676513672,112.10900115966797 -87.36699676513672,112.10900115966797 C-87.36699676513672,112.10900115966797 82.5199966430664,112.18299865722656 82.5199966430664,112.18299865722656 C82.5199966430664,112.18299865722656 82.69300079345703,39.37099838256836 82.69300079345703,39.37099838256836 C82.69300079345703,39.37099838256836 3,39.40800094604492 3,39.40800094604492 C1.343000054359436,39.40800094604492 0,38.064998626708984 0,36.40800094604492z"/></g></g></g><g id="__lottie_element_43"><g style="display: block;" transform="matrix(1,0,0,1,51.632999420166016,354.7430114746094)" opacity="1"><g opacity="1" transform="matrix(1,0,0,1,0,0)"><path fill="rgb(255,0,0)" fill-opacity="1" d=" M0,36.40800094604492 C0,36.40800094604492 -0.10199999809265137,-391.7200012207031 -0.10199999809265137,-391.7200012207031 C-0.10199999809265137,-391.7200012207031 -87.2959976196289,-391.83099365234375 -87.2959976196289,-391.83099365234375 C-87.2959976196289,-391.83099365234375 -87.36699676513672,112.10900115966797 -87.36699676513672,112.10900115966797 C-87.36699676513672,112.10900115966797 82.5199966430664,112.18299865722656 82.5199966430664,112.18299865722656 C82.5199966430664,112.18299865722656 82.69300079345703,39.37099838256836 82.69300079345703,39.37099838256836 C82.69300079345703,39.37099838256836 3,39.40800094604492 3,39.40800094604492 C1.343000054359436,39.40800094604492 0,38.064998626708984 0,36.40800094604492z"/></g></g></g><filter id="__lottie_element_61" filterUnits="objectBoundingBox" x="0%" y="0%" width="100%" height="100%"><feComponentTransfer in="SourceGraphic"><feFuncA type="table" tableValues="1.0 0.0"/></feComponentTransfer></filter><mask id="__lottie_element_43_2" mask-type="alpha"><g filter="url(#__lottie_element_61)"><rect width="430" height="430" x="0" y="0" fill="#ffffff" opacity="0"/><use a0:href="#__lottie_element_43" xmlns:a0="http://www.w3.org/1999/xlink"/></g></mask><filter id="__lottie_element_62" filterUnits="objectBoundingBox" x="0%" y="0%" width="100%" height="100%"><feComponentTransfer in="SourceGraphic"><feFuncA type="table" tableValues="1.0 0.0"/></feComponentTransfer></filter><mask id="__lottie_element_37_2" mask-type="alpha"><g filter="url(#__lottie_element_62)"><rect width="430" height="430" x="0" y="0" fill="#ffffff" opacity="0"/><use a1:href="#__lottie_element_37" xmlns:a1="http://www.w3.org/1999/xlink"/></g></mask><filter id="__lottie_element_63" filterUnits="objectBoundingBox" x="0%" y="0%" width="100%" height="100%"><feComponentTransfer in="SourceGraphic"><feFuncA type="table" tableValues="1.0 0.0"/></feComponentTransfer></filter><mask id="__lottie_element_31_2" mask-type="alpha"><g filter="url(#__lottie_element_63)"><rect width="430" height="430" x="0" y="0" fill="#ffffff" opacity="0"/><use a2:href="#__lottie_element_31" xmlns:a2="http://www.w3.org/1999/xlink"/></g></mask><filter id="__lottie_element_64" filterUnits="objectBoundingBox" x="0%" y="0%" width="100%" height="100%"><feComponentTransfer in="SourceGraphic"><feFuncA type="table" tableValues="1.0 0.0"/></feComponentTransfer></filter><mask id="__lottie_element_25_2" mask-type="alpha"><g filter="url(#__lottie_element_64)"><rect width="430" height="430" x="0" y="0" fill="#ffffff" opacity="0"/><use a3:href="#__lottie_element_25" xmlns:a3="http://www.w3.org/1999/xlink"/></g></mask></defs><g clip-path="url(#__lottie_element_10)"><g clip-path="url(#__lottie_element_12)" style="display: block;" transform="matrix(1,0,0,1,0,0)" opacity="1"><g style="display: block;" transform="matrix(1,0,0,1,230.6199951171875,190.39500427246094)" opacity="1"><g opacity="1" transform="matrix(1,0,0,1,0,0)"><path stroke-linecap="round" stroke-linejoin="round" fill-opacity="0" class="primary" stroke="rgb(18,19,49)" stroke-opacity="1" stroke-width="7" d=" M-17.049999237060547,-32.755001068115234 C-5.170000076293945,-27.864999771118164 4.110000133514404,-17.594999313354492 7.460000038146973,-4.565000057220459 C7.460000038146973,-4.565000057220459 11.407999992370605,10.9399995803833 16.655000686645508,31.548999786376953"/></g></g><g style="display: block;" transform="matrix(1,0,0,1,230.6199951171875,190.39500427246094)" opacity="1"><g opacity="1" transform="matrix(1,0,0,1,0,0)"><path stroke-linecap="round" stroke-linejoin="round" fill-opacity="0" class="primary" stroke="rgb(18,19,49)" stroke-opacity="1" stroke-width="7" d=" M23.79800033569336,59.60599899291992 C24.98900032043457,64.28199768066406 26.187000274658203,68.98699951171875 27.3700008392334,73.63400268554688"/></g></g><g style="display: block;" mask="url(#__lottie_element_25_2)"><g transform="matrix(1,0,0,1,-51,-30.999984741210938)" opacity="1"><g opacity="1" transform="matrix(1,0,0,1,423.5010070800781,371.57000732421875)"><path class="secondary" fill="rgb(75,179,253)" fill-opacity="1" d=" M163.62600708007812,-49.446998596191406 C163.6320037841797,-51.09400177001953 162.43800354003906,-52.5890007019043 160.81900024414062,-52.895999908447266 C158.5709991455078,-53.321998596191406 156.62600708007812,-51.61399841308594 156.62600708007812,-49.46200180053711 C156.62600708007812,-36.676998138427734 146.22500610351562,-26.275999069213867 133.44000244140625,-26.275999069213867 C120.71099853515625,-26.275999069213867 110.34500122070312,-36.5880012512207 110.25499725341797,-49.29600143432617 C110.24199676513672,-51.16600036621094 108.84600067138672,-52.8380012512207 106.9800033569336,-52.95500183105469 C104.94499969482422,-53.08300018310547 103.25399780273438,-51.470001220703125 103.25399780273438,-49.46200180053711 C103.25399780273438,-36.676998138427734 92.85299682617188,-26.275999069213867 80.06800079345703,-26.275999069213867 C67.33899688720703,-26.275999069213867 56.972999572753906,-36.5880012512207 56.882999420166016,-49.29600143432617 C56.869998931884766,-51.16600036621094 55.4739990234375,-52.8380012512207 53.608001708984375,-52.95500183105469 C51.573001861572266,-53.08300018310547 49.882999420166016,-51.470001220703125 49.882999420166016,-49.46200180053711 C49.882999420166016,-36.676998138427734 39.481998443603516,-26.275999069213867 26.69700050354004,-26.275999069213867 C13.968000411987305,-26.275999069213867 3.6019999980926514,-36.5880012512207 3.51200008392334,-49.29600143432617 C3.509999990463257,-49.53300094604492 3.4860000610351562,-49.76499938964844 3.441999912261963,-49.99300003051758 C3.265000104904175,-51.108001708984375 2.5460000038146973,-52.082000732421875 1.5509999990463257,-52.58599853515625 C1.5379999876022339,-52.59299850463867 1.5240000486373901,-52.5989990234375 1.5110000371932983,-52.60599899291992 C1.3530000448226929,-52.68299865722656 1.1890000104904175,-52.74700164794922 1.0190000534057617,-52.79899978637695 C0.953000009059906,-52.81999969482422 0.8880000114440918,-52.8390007019043 0.8199999928474426,-52.85599899291992 C0.7730000019073486,-52.867000579833984 0.7289999723434448,-52.887001037597656 0.6809999942779541,-52.895999908447266 C0.6200000047683716,-52.90800094604492 0.5640000104904175,-52.902000427246094 0.503000020980835,-52.90999984741211 C0.414000004529953,-52.92300033569336 0.32899999618530273,-52.94900131225586 0.2370000034570694,-52.95500183105469 C0.16599999368190765,-52.95899963378906 0.0989999994635582,-52.94599914550781 0.028999999165534973,-52.94599914550781 C-0.09399999678134918,-52.946998596191406 -0.21299999952316284,-52.94200134277344 -0.3319999873638153,-52.930999755859375 C-0.45399999618530273,-52.91899871826172 -0.5720000267028809,-52.9010009765625 -0.6890000104904175,-52.87699890136719 C-0.8309999704360962,-52.8489990234375 -0.9700000286102295,-52.816001892089844 -1.1050000190734863,-52.770999908447266 C-1.184000015258789,-52.74399948120117 -1.2599999904632568,-52.71200180053711 -1.3370000123977661,-52.68000030517578 C-1.496999979019165,-52.61399841308594 -1.649999976158142,-52.54199981689453 -1.7970000505447388,-52.45399856567383 C-1.8339999914169312,-52.430999755859375 -1.86899995803833,-52.40599822998047 -1.9049999713897705,-52.38199996948242 C-2.865999937057495,-51.75699996948242 -3.510999917984009,-50.689998626708984 -3.510999917984009,-49.46200180053711 C-3.510999917984009,-36.676998138427734 -13.911999702453613,-26.275999069213867 -26.69700050354004,-26.275999069213867 C-39.42599868774414,-26.275999069213867 -49.79199981689453,-36.5880012512207 -49.88199996948242,-49.29600143432617 C-49.89500045776367,-51.16600036621094 -51.29100036621094,-52.8380012512207 -53.15700149536133,-52.95500183105469 C-55.19200134277344,-53.08300018310547 -56.882999420166016,-51.470001220703125 -56.882999420166016,-49.46200180053711 C-56.882999420166016,-36.676998138427734 -67.28399658203125,-26.275999069213867 -80.06900024414062,-26.275999069213867 C-92.7979965209961,-26.275999069213867 -103.16400146484375,-36.5880012512207 -103.25399780273438,-49.29600143432617 C-103.26699829101562,-51.16600036621094 -104.66300201416016,-52.8380012512207 -106.52899932861328,-52.95500183105469 C-108.56400299072266,-53.08300018310547 -110.25499725341797,-51.470001220703125 -110.25499725341797,-49.46200180053711 C-110.25499725341797,-36.676998138427734 -120.65499877929688,-26.275999069213867 -133.44000244140625,-26.275999069213867 C-146.16900634765625,-26.275999069213867 -156.53500366210938,-36.5880012512207 -156.625,-49.29600143432617 C-156.63800048828125,-51.16600036621094 -158.03399658203125,-52.8380012512207 -159.89999389648438,-52.95500183105469 C-161.93499755859375,-53.08300018310547 -163.62600708007812,-49.400001525878906 -163.62600708007812,-49.39400100708008 C-163.62600708007812,-49.39400100708008 -163.62600708007812,52.96200180053711 -163.62600708007812,52.96200180053711 C-163.62600708007812,52.96200180053711 -160.12600708007812,52.96200180053711 -160.12600708007812,52.96200180053711 C-160.12600708007812,52.96200180053711 -158.87399291992188,52.96200180053711 -158.87399291992188,52.96200180053711 C-158.87399291992188,52.96200180053711 -80.7699966430664,52.96200180053711 -80.7699966430664,52.96200180053711 C-80.7699966430664,52.96200180053711 158.6790008544922,52.96200180053711 158.6790008544922,52.96200180053711 C158.6790008544922,52.96200180053711 160.1300048828125,52.96200180053711 160.1300048828125,52.96200180053711 C160.1300048828125,52.96200180053711 160.61399841308594,52.96200180053711 160.61399841308594,52.96200180053711 C162.27099609375,52.96200180053711 163.61399841308594,51.61899948120117 163.61399841308594,49.96200180053711 C163.61399841308594,49.96200180053711 163.61399841308594,-48.77799987792969 163.61399841308594,-48.77799987792969 C163.61399841308594,-48.77799987792969 163.60499572753906,-48.77799987792969 163.60499572753906,-48.77799987792969 C163.61000061035156,-48.994998931884766 163.62600708007812,-49.20899963378906 163.62600708007812,-49.426998138427734 C163.62600708007812,-49.433998107910156 163.62600708007812,-49.439998626708984 163.62600708007812,-49.446998596191406z"/></g><g style="mix-blend-mode: multiply;" opacity="0.75" transform="matrix(1,0,0,1,423.5010070800781,371.57000732421875)"><path class="secondary" fill="rgb(75,179,253)" fill-opacity="1" d=" M163.62600708007812,-49.446998596191406 C163.6320037841797,-51.09400177001953 162.43800354003906,-52.5890007019043 160.81900024414062,-52.895999908447266 C158.5709991455078,-53.321998596191406 156.62600708007812,-51.61399841308594 156.62600708007812,-49.46200180053711 C156.62600708007812,-36.676998138427734 146.22500610351562,-26.275999069213867 133.44000244140625,-26.275999069213867 C120.71099853515625,-26.275999069213867 110.34500122070312,-36.5880012512207 110.25499725341797,-49.29600143432617 C110.24199676513672,-51.16600036621094 108.84600067138672,-52.8380012512207 106.9800033569336,-52.95500183105469 C104.94499969482422,-53.08300018310547 103.25399780273438,-51.470001220703125 103.25399780273438,-49.46200180053711 C103.25399780273438,-36.676998138427734 92.85299682617188,-26.275999069213867 80.06800079345703,-26.275999069213867 C67.33899688720703,-26.275999069213867 56.972999572753906,-36.5880012512207 56.882999420166016,-49.29600143432617 C56.869998931884766,-51.16600036621094 55.4739990234375,-52.8380012512207 53.608001708984375,-52.95500183105469 C51.573001861572266,-53.08300018310547 49.882999420166016,-51.470001220703125 49.882999420166016,-49.46200180053711 C49.882999420166016,-36.676998138427734 39.481998443603516,-26.275999069213867 26.69700050354004,-26.275999069213867 C13.968000411987305,-26.275999069213867 3.6019999980926514,-36.5880012512207 3.51200008392334,-49.29600143432617 C3.509999990463257,-49.53300094604492 3.4860000610351562,-49.76499938964844 3.441999912261963,-49.99300003051758 C3.265000104904175,-51.108001708984375 2.5460000038146973,-52.082000732421875 1.5509999990463257,-52.58599853515625 C1.5379999876022339,-52.59299850463867 1.5240000486373901,-52.5989990234375 1.5110000371932983,-52.60599899291992 C1.3530000448226929,-52.68299865722656 1.1890000104904175,-52.74700164794922 1.0190000534057617,-52.79899978637695 C0.953000009059906,-52.81999969482422 0.8880000114440918,-52.8390007019043 0.8199999928474426,-52.85599899291992 C0.7730000019073486,-52.867000579833984 0.7289999723434448,-52.887001037597656 0.6809999942779541,-52.895999908447266 C0.6200000047683716,-52.90800094604492 0.5640000104904175,-52.902000427246094 0.503000020980835,-52.90999984741211 C0.414000004529953,-52.92300033569336 0.32899999618530273,-52.94900131225586 0.2370000034570694,-52.95500183105469 C0.16599999368190765,-52.95899963378906 0.0989999994635582,-52.94599914550781 0.028999999165534973,-52.94599914550781 C-0.09399999678134918,-52.946998596191406 -0.21299999952316284,-52.94200134277344 -0.3319999873638153,-52.930999755859375 C-0.45399999618530273,-52.91899871826172 -0.5720000267028809,-52.9010009765625 -0.6890000104904175,-52.87699890136719 C-0.8309999704360962,-52.8489990234375 -0.9700000286102295,-52.816001892089844 -1.1050000190734863,-52.770999908447266 C-1.184000015258789,-52.74399948120117 -1.2599999904632568,-52.71200180053711 -1.3370000123977661,-52.68000030517578 C-1.496999979019165,-52.61399841308594 -1.649999976158142,-52.54199981689453 -1.7970000505447388,-52.45399856567383 C-1.8339999914169312,-52.430999755859375 -1.86899995803833,-52.40599822998047 -1.9049999713897705,-52.38199996948242 C-2.865999937057495,-51.75699996948242 -3.510999917984009,-50.689998626708984 -3.510999917984009,-49.46200180053711 C-3.510999917984009,-36.676998138427734 -13.911999702453613,-26.275999069213867 -26.69700050354004,-26.275999069213867 C-39.42599868774414,-26.275999069213867 -49.79199981689453,-36.5880012512207 -49.88199996948242,-49.29600143432617 C-49.89500045776367,-51.16600036621094 -51.29100036621094,-52.8380012512207 -53.15700149536133,-52.95500183105469 C-55.19200134277344,-53.08300018310547 -56.882999420166016,-51.470001220703125 -56.882999420166016,-49.46200180053711 C-56.882999420166016,-36.676998138427734 -67.28399658203125,-26.275999069213867 -80.06900024414062,-26.275999069213867 C-92.7979965209961,-26.275999069213867 -103.16400146484375,-36.5880012512207 -103.25399780273438,-49.29600143432617 C-103.26699829101562,-51.16600036621094 -104.66300201416016,-52.8380012512207 -106.52899932861328,-52.95500183105469 C-108.56400299072266,-53.08300018310547 -110.25499725341797,-51.470001220703125 -110.25499725341797,-49.46200180053711 C-110.25499725341797,-36.676998138427734 -120.65499877929688,-26.275999069213867 -133.44000244140625,-26.275999069213867 C-146.16900634765625,-26.275999069213867 -156.53500366210938,-36.5880012512207 -156.625,-49.29600143432617 C-156.63800048828125,-51.16600036621094 -158.03399658203125,-52.8380012512207 -159.89999389648438,-52.95500183105469 C-161.93499755859375,-53.08300018310547 -163.62600708007812,-49.400001525878906 -163.62600708007812,-49.39400100708008 C-163.62600708007812,-49.39400100708008 -163.62600708007812,52.96200180053711 -163.62600708007812,52.96200180053711 C-163.62600708007812,52.96200180053711 -160.12600708007812,52.96200180053711 -160.12600708007812,52.96200180053711 C-160.12600708007812,52.96200180053711 -158.87399291992188,52.96200180053711 -158.87399291992188,52.96200180053711 C-158.87399291992188,52.96200180053711 -80.7699966430664,52.96200180053711 -80.7699966430664,52.96200180053711 C-80.7699966430664,52.96200180053711 160.1300048828125,52.96200180053711 160.1300048828125,52.96200180053711 C160.1300048828125,52.96200180053711 160.61399841308594,52.96200180053711 160.61399841308594,52.96200180053711 C162.27099609375,52.96200180053711 163.61399841308594,51.61899948120117 163.61399841308594,49.96200180053711 C163.61399841308594,49.96200180053711 163.61399841308594,-48.77799987792969 163.61399841308594,-48.77799987792969 C163.61399841308594,-48.77799987792969 163.60499572753906,-48.77799987792969 163.60499572753906,-48.77799987792969 C163.61000061035156,-48.994998931884766 163.62600708007812,-49.20899963378906 163.62600708007812,-49.426998138427734 C163.62600708007812,-49.433998107910156 163.62600708007812,-49.439998626708984 163.62600708007812,-49.446998596191406z"/></g><g opacity="1" transform="matrix(1,0,0,1,265.38299560546875,400.093994140625)"><path class="secondary" fill="rgb(75,179,253)" fill-opacity="1" d=" M158.00100708007812,2.2300000190734863 C157.7169952392578,2.239000082015991 157.4239959716797,2.247999906539917 157.13099670410156,2.247999906539917 C144.43899536132812,2.247999906539917 134.07200622558594,-8.032999992370605 133.94400024414062,-20.70400047302246 C133.9250030517578,-22.569000244140625 132.53199768066406,-24.233999252319336 130.6699981689453,-24.351999282836914 C128.63800048828125,-24.479999542236328 126.9489974975586,-22.87299919128418 126.94300079345703,-20.868999481201172 C126.90599822998047,-8.121999740600586 116.50599670410156,2.247999906539917 103.75900268554688,2.247999906539917 C91.02999877929688,2.247999906539917 80.66400146484375,-8.064000129699707 80.5739974975586,-20.77199935913086 C80.56099700927734,-22.642000198364258 79.16500091552734,-24.31399917602539 77.29900360107422,-24.430999755859375 C75.26399993896484,-24.55900001525879 73.572998046875,-22.945999145507812 73.572998046875,-20.937999725341797 C73.572998046875,-8.152999877929688 63.172000885009766,2.247999906539917 50.387001037597656,2.247999906539917 C37.67300033569336,2.247999906539917 27.31999969482422,-7.954999923706055 27.22800064086914,-20.5310001373291 C27.214000701904297,-22.402000427246094 25.820999145507812,-24.075000762939453 23.95400047302246,-24.191999435424805 C21.917999267578125,-24.31999969482422 20.22800064086914,-22.707000732421875 20.22800064086914,-20.698999404907227 C20.22800064086914,-7.914000034332275 10.383999824523926,2.486999988555908 -1.715999960899353,2.486999988555908 C-13.76200008392334,2.486999988555908 -23.57200050354004,-7.822999954223633 -23.658000946044922,-20.530000686645508 C-23.67099952697754,-22.400999069213867 -25.066999435424805,-24.076000213623047 -26.934999465942383,-24.191999435424805 C-28.9689998626709,-24.319000244140625 -30.659000396728516,-22.70599937438965 -30.659000396728516,-20.698999404907227 C-30.659000396728516,-7.914000034332275 -40.50199890136719,2.486999988555908 -52.60200119018555,2.486999988555908 C-64.7020034790039,2.486999988555908 -74.5459976196289,-7.914000034332275 -74.5459976196289,-20.698999404907227 C-74.5459976196289,-20.700000762939453 -74.5459976196289,-20.701000213623047 -74.5459976196289,-20.70199966430664 C-74.5459976196289,-20.70199966430664 -74.5459976196289,-20.71299934387207 -74.5459976196289,-20.71299934387207 C-74.5459976196289,-22.63800048828125 -76.10700225830078,-24.198999404907227 -78.03199768066406,-24.198999404907227 C-78.03199768066406,-24.198999404907227 -78.052001953125,-24.198999404907227 -78.052001953125,-24.198999404907227 C-79.98400115966797,-24.198999404907227 -81.5459976196289,-22.631000518798828 -81.5459976196289,-20.698999404907227 C-81.5459976196289,-20.66200065612793 -81.54499816894531,-20.625 -81.54499816894531,-20.58799934387207 C-81.5719985961914,-7.826000213623047 -91.96299743652344,2.5490000247955322 -104.73100280761719,2.5490000247955322 C-117.51599884033203,2.5490000247955322 -127.91699981689453,-7.8520002365112305 -127.91699981689453,-20.636999130249023 C-127.91699981689453,-21.819000244140625 -128.52000427246094,-22.91900062561035 -129.50999450683594,-23.565000534057617 C-130.89300537109375,-24.468000411987305 -132.7949981689453,-24.304000854492188 -134.0189971923828,-22.993000030517578 C-134.64500427246094,-22.32200050354004 -134.9239959716797,-21.40399932861328 -134.92999267578125,-20.486000061035156 C-135.00900268554688,-7.765999794006348 -145.37600708007812,2.558000087738037 -158.10899353027344,2.558000087738037 C-160.04200744628906,2.558000087738037 -161.60899353027344,4.125 -161.60899353027344,6.058000087738037 C-161.60899353027344,6.1020002365112305 -161.59800720214844,6.144000053405762 -161.5959930419922,6.188000202178955 C-161.5959930419922,6.188000202178955 -161.60400390625,6.188000202178955 -161.60400390625,6.188000202178955 C-161.60400390625,6.188000202178955 -161.60400390625,21.437999725341797 -161.60400390625,21.437999725341797 C-161.60400390625,23.094999313354492 -160.26100158691406,24.437999725341797 -158.60400390625,24.437999725341797 C-158.60400390625,24.437999725341797 -158.10899353027344,24.437999725341797 -158.10899353027344,24.437999725341797 C-158.10899353027344,24.437999725341797 -156.8719940185547,24.437999725341797 -156.8719940185547,24.437999725341797 C-156.8719940185547,24.437999725341797 157.1699981689453,24.437999725341797 157.1699981689453,24.437999725341797 C157.1699981689453,24.437999725341797 158.11099243164062,24.437999725341797 158.11099243164062,24.437999725341797 C158.11099243164062,24.437999725341797 158.60899353027344,24.437999725341797 158.60899353027344,24.437999725341797 C160.26600646972656,24.437999725341797 161.60899353027344,23.094999313354492 161.60899353027344,21.437999725341797 C161.60899353027344,21.437999725341797 161.60899353027344,5.61899995803833 161.60899353027344,5.61899995803833 C161.54800415039062,3.687000036239624 159.92799377441406,2.1619999408721924 158.00100708007812,2.2300000190734863z"/></g><g style="mix-blend-mode: multiply;" opacity="1" transform="matrix(1,0,0,1,265.38299560546875,400.093994140625)"><path class="secondary" fill="rgb(75,179,253)" fill-opacity="1" d=" M158.00100708007812,2.2300000190734863 C157.7169952392578,2.239000082015991 157.4239959716797,2.247999906539917 157.13099670410156,2.247999906539917 C144.43899536132812,2.247999906539917 134.07200622558594,-8.032999992370605 133.94400024414062,-20.70400047302246 C133.9250030517578,-22.569000244140625 132.53199768066406,-24.233999252319336 130.6699981689453,-24.351999282836914 C128.63800048828125,-24.479999542236328 126.9489974975586,-22.87299919128418 126.94300079345703,-20.868999481201172 C126.90599822998047,-8.121999740600586 116.50599670410156,2.247999906539917 103.75900268554688,2.247999906539917 C91.02999877929688,2.247999906539917 80.66400146484375,-8.064000129699707 80.5739974975586,-20.77199935913086 C80.56099700927734,-22.642000198364258 79.16500091552734,-24.31399917602539 77.29900360107422,-24.430999755859375 C75.26399993896484,-24.55900001525879 73.572998046875,-22.945999145507812 73.572998046875,-20.937999725341797 C73.572998046875,-8.152999877929688 63.172000885009766,2.247999906539917 50.387001037597656,2.247999906539917 C37.67300033569336,2.247999906539917 27.31999969482422,-7.954999923706055 27.22800064086914,-20.5310001373291 C27.214000701904297,-22.402000427246094 25.820999145507812,-24.075000762939453 23.95400047302246,-24.191999435424805 C21.917999267578125,-24.31999969482422 20.22800064086914,-22.707000732421875 20.22800064086914,-20.698999404907227 C20.22800064086914,-7.914000034332275 10.383999824523926,2.486999988555908 -1.715999960899353,2.486999988555908 C-13.76200008392334,2.486999988555908 -23.57200050354004,-7.822999954223633 -23.658000946044922,-20.530000686645508 C-23.67099952697754,-22.400999069213867 -25.066999435424805,-24.076000213623047 -26.934999465942383,-24.191999435424805 C-28.9689998626709,-24.319000244140625 -30.659000396728516,-22.70599937438965 -30.659000396728516,-20.698999404907227 C-30.659000396728516,-7.914000034332275 -40.50199890136719,2.486999988555908 -52.60200119018555,2.486999988555908 C-64.7020034790039,2.486999988555908 -74.5459976196289,-7.914000034332275 -74.5459976196289,-20.698999404907227 C-74.5459976196289,-20.700000762939453 -74.5459976196289,-20.701000213623047 -74.5459976196289,-20.70199966430664 C-74.5459976196289,-20.70199966430664 -74.5459976196289,-20.71299934387207 -74.5459976196289,-20.71299934387207 C-74.5459976196289,-22.63800048828125 -76.10700225830078,-24.198999404907227 -78.03199768066406,-24.198999404907227 C-78.03199768066406,-24.198999404907227 -78.052001953125,-24.198999404907227 -78.052001953125,-24.198999404907227 C-79.98400115966797,-24.198999404907227 -81.5459976196289,-22.631000518798828 -81.5459976196289,-20.698999404907227 C-81.5459976196289,-20.66200065612793 -81.54499816894531,-20.625 -81.54499816894531,-20.58799934387207 C-81.5719985961914,-7.826000213623047 -91.96299743652344,2.5490000247955322 -104.73100280761719,2.5490000247955322 C-117.51599884033203,2.5490000247955322 -127.91699981689453,-7.8520002365112305 -127.91699981689453,-20.636999130249023 C-127.91699981689453,-21.819000244140625 -128.52000427246094,-22.91900062561035 -129.50999450683594,-23.565000534057617 C-130.89300537109375,-24.468000411987305 -132.7949981689453,-24.304000854492188 -134.0189971923828,-22.993000030517578 C-134.64500427246094,-22.32200050354004 -134.9239959716797,-21.40399932861328 -134.92999267578125,-20.486000061035156 C-135.00900268554688,-7.765999794006348 -145.37600708007812,2.558000087738037 -158.10899353027344,2.558000087738037 C-160.04200744628906,2.558000087738037 -161.60899353027344,4.125 -161.60899353027344,6.058000087738037 C-161.60899353027344,6.1020002365112305 -161.59800720214844,6.144000053405762 -161.5959930419922,6.188000202178955 C-161.5959930419922,6.188000202178955 -161.60400390625,6.188000202178955 -161.60400390625,6.188000202178955 C-161.60400390625,6.188000202178955 -161.60400390625,21.437999725341797 -161.60400390625,21.437999725341797 C-161.60400390625,23.094999313354492 -160.26100158691406,24.437999725341797 -158.60400390625,24.437999725341797 C-158.60400390625,24.437999725341797 -158.10899353027344,24.437999725341797 -158.10899353027344,24.437999725341797 C-158.10899353027344,24.437999725341797 -156.8719940185547,24.437999725341797 -156.8719940185547,24.437999725341797 C-156.8719940185547,24.437999725341797 157.1699981689453,24.437999725341797 157.1699981689453,24.437999725341797 C157.1699981689453,24.437999725341797 158.11099243164062,24.437999725341797 158.11099243164062,24.437999725341797 C158.11099243164062,24.437999725341797 158.60899353027344,24.437999725341797 158.60899353027344,24.437999725341797 C160.26600646972656,24.437999725341797 161.60899353027344,23.094999313354492 161.60899353027344,21.437999725341797 C161.60899353027344,21.437999725341797 161.60899353027344,5.61899995803833 161.60899353027344,5.61899995803833 C161.54800415039062,3.687000036239624 159.92799377441406,2.1619999408721924 158.00100708007812,2.2300000190734863z"/></g></g></g><g style="display: block;" mask="url(#__lottie_element_31_2)"><g transform="matrix(1,0,0,1,-51,-30.999984741210938)" opacity="1"><g opacity="1" transform="matrix(1,0,0,1,423.5010070800781,371.57000732421875)"><path stroke-linecap="round" stroke-linejoin="round" fill-opacity="0" class="primary" stroke="rgb(18,19,49)" stroke-opacity="1" stroke-width="7" d=" M163.62600708007812,-49.446998596191406 C163.6320037841797,-51.09400177001953 162.43800354003906,-52.5890007019043 160.81900024414062,-52.895999908447266 C158.5709991455078,-53.321998596191406 156.62600708007812,-51.61399841308594 156.62600708007812,-49.46200180053711 C156.62600708007812,-36.676998138427734 146.22500610351562,-26.275999069213867 133.44000244140625,-26.275999069213867 C120.71099853515625,-26.275999069213867 110.34500122070312,-36.5880012512207 110.25499725341797,-49.29600143432617 C110.24199676513672,-51.16600036621094 108.84600067138672,-52.8380012512207 106.9800033569336,-52.95500183105469 C104.94499969482422,-53.08300018310547 103.25399780273438,-51.470001220703125 103.25399780273438,-49.46200180053711 C103.25399780273438,-36.676998138427734 92.85299682617188,-26.275999069213867 80.06800079345703,-26.275999069213867 C67.33899688720703,-26.275999069213867 56.972999572753906,-36.5880012512207 56.882999420166016,-49.29600143432617 C56.869998931884766,-51.16600036621094 55.4739990234375,-52.8380012512207 53.608001708984375,-52.95500183105469 C51.573001861572266,-53.08300018310547 49.882999420166016,-51.470001220703125 49.882999420166016,-49.46200180053711 C49.882999420166016,-36.676998138427734 39.481998443603516,-26.275999069213867 26.69700050354004,-26.275999069213867 C13.968000411987305,-26.275999069213867 3.6019999980926514,-36.5880012512207 3.51200008392334,-49.29600143432617 C3.509999990463257,-49.53300094604492 3.4860000610351562,-49.76499938964844 3.441999912261963,-49.99300003051758 C3.265000104904175,-51.108001708984375 2.5460000038146973,-52.082000732421875 1.5509999990463257,-52.58599853515625 C1.5379999876022339,-52.59299850463867 1.5240000486373901,-52.5989990234375 1.5110000371932983,-52.60599899291992 C1.3530000448226929,-52.68299865722656 1.1890000104904175,-52.74700164794922 1.0190000534057617,-52.79899978637695 C0.953000009059906,-52.81999969482422 0.8880000114440918,-52.8390007019043 0.8199999928474426,-52.85599899291992 C0.7730000019073486,-52.867000579833984 0.7289999723434448,-52.887001037597656 0.6809999942779541,-52.895999908447266 C0.6200000047683716,-52.90800094604492 0.5640000104904175,-52.902000427246094 0.503000020980835,-52.90999984741211 C0.414000004529953,-52.92300033569336 0.32899999618530273,-52.94900131225586 0.2370000034570694,-52.95500183105469 C0.16599999368190765,-52.95899963378906 0.0989999994635582,-52.94599914550781 0.028999999165534973,-52.94599914550781 C-0.09399999678134918,-52.946998596191406 -0.21299999952316284,-52.94200134277344 -0.3319999873638153,-52.930999755859375 C-0.45399999618530273,-52.91899871826172 -0.5720000267028809,-52.9010009765625 -0.6890000104904175,-52.87699890136719 C-0.8309999704360962,-52.8489990234375 -0.9700000286102295,-52.816001892089844 -1.1050000190734863,-52.770999908447266 C-1.184000015258789,-52.74399948120117 -1.2599999904632568,-52.71200180053711 -1.3370000123977661,-52.68000030517578 C-1.496999979019165,-52.61399841308594 -1.649999976158142,-52.54199981689453 -1.7970000505447388,-52.45399856567383 C-1.8339999914169312,-52.430999755859375 -1.86899995803833,-52.40599822998047 -1.9049999713897705,-52.38199996948242 C-2.865999937057495,-51.75699996948242 -3.510999917984009,-50.689998626708984 -3.510999917984009,-49.46200180053711 C-3.510999917984009,-36.676998138427734 -13.911999702453613,-26.275999069213867 -26.69700050354004,-26.275999069213867 C-39.42599868774414,-26.275999069213867 -49.79199981689453,-36.5880012512207 -49.88199996948242,-49.29600143432617 C-49.89500045776367,-51.16600036621094 -51.29100036621094,-52.8380012512207 -53.15700149536133,-52.95500183105469 C-55.19200134277344,-53.08300018310547 -56.882999420166016,-51.470001220703125 -56.882999420166016,-49.46200180053711 C-56.882999420166016,-36.676998138427734 -67.28399658203125,-26.275999069213867 -80.06900024414062,-26.275999069213867 C-92.7979965209961,-26.275999069213867 -103.16400146484375,-36.5880012512207 -103.25399780273438,-49.29600143432617 C-103.26699829101562,-51.16600036621094 -104.66300201416016,-52.8380012512207 -106.52899932861328,-52.95500183105469 C-108.56400299072266,-53.08300018310547 -110.25499725341797,-51.470001220703125 -110.25499725341797,-49.46200180053711 C-110.25499725341797,-36.676998138427734 -120.65499877929688,-26.275999069213867 -133.44000244140625,-26.275999069213867 C-146.16900634765625,-26.275999069213867 -156.53500366210938,-36.5880012512207 -156.625,-49.29600143432617 C-156.63800048828125,-51.16600036621094 -158.03399658203125,-52.8380012512207 -159.89999389648438,-52.95500183105469 C-161.93499755859375,-53.08300018310547 -163.62600708007812,-49.400001525878906 -163.62600708007812,-49.39400100708008 C-163.62600708007812,-49.39400100708008 -163.62600708007812,52.96200180053711 -163.62600708007812,52.96200180053711 C-163.62600708007812,52.96200180053711 -160.12600708007812,52.96200180053711 -160.12600708007812,52.96200180053711 C-160.12600708007812,52.96200180053711 -158.87399291992188,52.96200180053711 -158.87399291992188,52.96200180053711 C-158.87399291992188,52.96200180053711 -80.7699966430664,52.96200180053711 -80.7699966430664,52.96200180053711 C-80.7699966430664,52.96200180053711 158.6790008544922,52.96200180053711 158.6790008544922,52.96200180053711 C158.6790008544922,52.96200180053711 160.1300048828125,52.96200180053711 160.1300048828125,52.96200180053711 C160.1300048828125,52.96200180053711 160.61399841308594,52.96200180053711 160.61399841308594,52.96200180053711 C162.27099609375,52.96200180053711 163.61399841308594,51.61899948120117 163.61399841308594,49.96200180053711 C163.61399841308594,49.96200180053711 163.61399841308594,-48.77799987792969 163.61399841308594,-48.77799987792969 C163.61399841308594,-48.77799987792969 163.60499572753906,-48.77799987792969 163.60499572753906,-48.77799987792969 C163.61000061035156,-48.994998931884766 163.62600708007812,-49.20899963378906 163.62600708007812,-49.426998138427734 C163.62600708007812,-49.433998107910156 163.62600708007812,-49.439998626708984 163.62600708007812,-49.446998596191406z"/></g><g opacity="1" transform="matrix(1,0,0,1,265.38299560546875,400.093994140625)"><path stroke-linecap="round" stroke-linejoin="round" fill-opacity="0" class="primary" stroke="rgb(18,19,49)" stroke-opacity="1" stroke-width="7" d=" M158.00100708007812,2.2300000190734863 C157.7169952392578,2.239000082015991 157.4239959716797,2.247999906539917 157.13099670410156,2.247999906539917 C144.43899536132812,2.247999906539917 134.07200622558594,-8.032999992370605 133.94400024414062,-20.70400047302246 C133.9250030517578,-22.569000244140625 132.53199768066406,-24.233999252319336 130.6699981689453,-24.351999282836914 C128.63800048828125,-24.479999542236328 126.9489974975586,-22.87299919128418 126.94300079345703,-20.868999481201172 C126.90599822998047,-8.121999740600586 116.50599670410156,2.247999906539917 103.75900268554688,2.247999906539917 C91.02999877929688,2.247999906539917 80.66400146484375,-8.064000129699707 80.5739974975586,-20.77199935913086 C80.56099700927734,-22.642000198364258 79.16500091552734,-24.31399917602539 77.29900360107422,-24.430999755859375 C75.26399993896484,-24.55900001525879 73.572998046875,-22.945999145507812 73.572998046875,-20.937999725341797 C73.572998046875,-8.152999877929688 63.172000885009766,2.247999906539917 50.387001037597656,2.247999906539917 C37.67300033569336,2.247999906539917 27.31999969482422,-7.954999923706055 27.22800064086914,-20.5310001373291 C27.214000701904297,-22.402000427246094 25.820999145507812,-24.075000762939453 23.95400047302246,-24.191999435424805 C21.917999267578125,-24.31999969482422 20.22800064086914,-22.707000732421875 20.22800064086914,-20.698999404907227 C20.22800064086914,-7.914000034332275 10.383999824523926,2.486999988555908 -1.715999960899353,2.486999988555908 C-13.76200008392334,2.486999988555908 -23.57200050354004,-7.822999954223633 -23.658000946044922,-20.530000686645508 C-23.67099952697754,-22.400999069213867 -25.066999435424805,-24.076000213623047 -26.934999465942383,-24.191999435424805 C-28.9689998626709,-24.319000244140625 -30.659000396728516,-22.70599937438965 -30.659000396728516,-20.698999404907227 C-30.659000396728516,-7.914000034332275 -40.50199890136719,2.486999988555908 -52.60200119018555,2.486999988555908 C-64.7020034790039,2.486999988555908 -74.5459976196289,-7.914000034332275 -74.5459976196289,-20.698999404907227 C-74.5459976196289,-20.700000762939453 -74.5459976196289,-20.701000213623047 -74.5459976196289,-20.70199966430664 C-74.5459976196289,-20.70199966430664 -74.5459976196289,-20.71299934387207 -74.5459976196289,-20.71299934387207 C-74.5459976196289,-22.63800048828125 -76.10700225830078,-24.198999404907227 -78.03199768066406,-24.198999404907227 C-78.03199768066406,-24.198999404907227 -78.052001953125,-24.198999404907227 -78.052001953125,-24.198999404907227 C-79.98400115966797,-24.198999404907227 -81.5459976196289,-22.631000518798828 -81.5459976196289,-20.698999404907227 C-81.5459976196289,-20.66200065612793 -81.54499816894531,-20.625 -81.54499816894531,-20.58799934387207 C-81.5719985961914,-7.826000213623047 -91.96299743652344,2.5490000247955322 -104.73100280761719,2.5490000247955322 C-117.51599884033203,2.5490000247955322 -127.91699981689453,-7.8520002365112305 -127.91699981689453,-20.636999130249023 C-127.91699981689453,-21.819000244140625 -128.52000427246094,-22.91900062561035 -129.50999450683594,-23.565000534057617 C-130.89300537109375,-24.468000411987305 -132.7949981689453,-24.304000854492188 -134.0189971923828,-22.993000030517578 C-134.64500427246094,-22.32200050354004 -134.9239959716797,-21.40399932861328 -134.92999267578125,-20.486000061035156 C-135.00900268554688,-7.765999794006348 -145.37600708007812,2.558000087738037 -158.10899353027344,2.558000087738037 C-160.04200744628906,2.558000087738037 -161.60899353027344,4.125 -161.60899353027344,6.058000087738037 C-161.60899353027344,6.1020002365112305 -161.59800720214844,6.144000053405762 -161.5959930419922,6.188000202178955 C-161.5959930419922,6.188000202178955 -161.60400390625,6.188000202178955 -161.60400390625,6.188000202178955 C-161.60400390625,6.188000202178955 -161.60400390625,21.437999725341797 -161.60400390625,21.437999725341797 C-161.60400390625,23.094999313354492 -160.26100158691406,24.437999725341797 -158.60400390625,24.437999725341797 C-158.60400390625,24.437999725341797 -158.10899353027344,24.437999725341797 -158.10899353027344,24.437999725341797 C-158.10899353027344,24.437999725341797 -156.8719940185547,24.437999725341797 -156.8719940185547,24.437999725341797 C-156.8719940185547,24.437999725341797 157.1699981689453,24.437999725341797 157.1699981689453,24.437999725341797 C157.1699981689453,24.437999725341797 158.11099243164062,24.437999725341797 158.11099243164062,24.437999725341797 C158.11099243164062,24.437999725341797 158.60899353027344,24.437999725341797 158.60899353027344,24.437999725341797 C160.26600646972656,24.437999725341797 161.60899353027344,23.094999313354492 161.60899353027344,21.437999725341797 C161.60899353027344,21.437999725341797 161.60899353027344,5.61899995803833 161.60899353027344,5.61899995803833 C161.54800415039062,3.687000036239624 159.92799377441406,2.1619999408721924 158.00100708007812,2.2300000190734863z"/></g></g></g><g style="display: block;" mask="url(#__lottie_element_37_2)"><g transform="matrix(1,0,0,1,-51.31298828125,-30.999984741210938)" opacity="1"><path stroke-linecap="butt" stroke-linejoin="miter" fill-opacity="0" stroke-miterlimit="4" class="primary" stroke="rgb(18,19,49)" stroke-opacity="1" stroke-width="7" d=" M183.98,147.7 C182.11,147.82 180.72,149.49 180.7,151.36 C180.61,164.07 170.25,174.38 157.52,174.38 C144.79,174.38 134.42,164.07 134.33,151.36 C134.32,149.49 132.92,147.82 131.06,147.7 C129.02,147.57 127.33,149.18 127.33,151.19 C127.33,163.98 116.93,174.38 104.14,174.38 C91.42,174.38 81.05,164.07 80.96,151.36 C80.95,149.49 79.55,147.82 77.68,147.7 C75.65,147.57 73.96,149.18 73.96,151.19 C73.96,151.21 73.96,151.23 73.96,151.24 C73.96,151.25 73.96,151.25 73.96,151.26 C73.96,164.03 63.58,174.43 50.81,174.45 C48.87,174.45 47.27,175.96 47.27,177.9 C47.27,177.9 47.27,421.53 47.27,421.53 C47.27,423.19 48.62,424.53 50.27,424.53 C50.27,424.53 50.77,424.53 50.77,424.53 C50.77,424.53 53.8,424.53 53.8,424.53 C53.8,424.53 183.75,424.53 183.75,424.53 C183.75,424.53 184.2,424.53 184.2,424.53 C184.2,424.53 187.7,424.53 187.7,424.53 C187.7,424.53 187.7,151.19 187.7,151.19 C187.7,149.18 186.01,147.57 183.98,147.7z M183.98,147.7 C182.11,147.82 180.72,149.49 180.7,151.36 C180.61,164.07 170.25,174.38 157.52,174.38 C144.79,174.38 134.42,164.07 134.33,151.36 C134.32,149.49 132.92,147.82 131.06,147.7 C129.02,147.57 127.33,149.18 127.33,151.19 C127.33,163.98 116.93,174.38 104.14,174.38 C91.42,174.38 81.05,164.07 80.96,151.36 C80.95,149.49 79.55,147.82 77.68,147.7 C75.65,147.57 73.96,149.18 73.96,151.19 C73.96,151.21 73.96,151.23 73.96,151.24 C73.96,151.25 73.96,151.25 73.96,151.26 C73.96,164.03 63.58,174.43 50.81,174.45 C48.87,174.45 47.27,175.96 47.27,177.9 C47.27,177.9 47.27,421.53 47.27,421.53 C47.27,423.19 48.62,424.53 50.27,424.53 C50.27,424.53 50.77,424.53 50.77,424.53 C50.77,424.53 53.8,424.53 53.8,424.53 C53.8,424.53 183.75,424.53 183.75,424.53 C183.75,424.53 184.2,424.53 184.2,424.53 C184.2,424.53 187.7,424.53 187.7,424.53 C187.7,424.53 187.7,151.19 187.7,151.19 C187.7,149.18 186.01,147.57 183.98,147.7z M244.2,234.97 C244.18,233.06 242.62,231.51 240.7,231.51 C227.92,231.51 217.52,221.11 217.52,208.25 C217.52,208.25 217.52,208.25 217.52,208.25 C217.52,206.89 216.77,205.6 215.52,205.07 C212.97,203.99 210.52,205.84 210.52,208.25 C210.52,221.04 200.12,231.44 187.33,231.44 C174.6,231.44 164.24,221.13 164.15,208.42 C164.13,206.55 162.74,204.88 160.87,204.76 C158.84,204.63 157.15,206.25 157.15,208.25 C157.15,221.04 146.74,231.44 133.96,231.44 C121.23,231.44 110.86,221.13 110.77,208.42 C110.76,206.55 109.37,204.88 107.5,204.76 C105.46,204.63 103.77,206.25 103.77,208.25 C103.77,208.26 103.77,208.27 103.77,208.28 C103.77,208.28 103.77,208.28 103.77,208.29 C103.77,208.29 103.77,208.3 103.77,208.3 C103.77,208.3 103.77,421.53 103.77,421.53 C103.77,423.19 105.12,424.53 106.77,424.53 C106.77,424.53 107.27,424.53 107.27,424.53 C107.27,424.53 240.7,424.53 240.7,424.53 C240.7,424.53 244.2,424.53 244.2,424.53 C244.2,424.53 244.2,234.97 244.2,234.97 C244.2,234.97 244.2,234.97 244.2,234.97z M183.98,261.66 C182.11,261.78 180.72,263.45 180.7,265.32 C180.61,278.03 170.25,288.34 157.52,288.34 C144.79,288.34 134.42,278.03 134.33,265.32 C134.32,263.45 132.92,261.78 131.06,261.66 C129.02,261.53 127.33,263.15 127.33,265.15 C127.33,277.94 116.93,288.34 104.14,288.34 C91.42,288.34 81.05,278.03 80.96,265.32 C80.95,263.45 79.55,261.78 77.68,261.66 C75.65,261.53 73.96,263.15 73.96,265.15 C73.96,265.17 73.96,265.19 73.96,265.2 C73.96,265.21 73.96,265.22 73.96,265.22 C73.96,277.99 63.58,288.39 50.81,288.41 C48.87,288.41 47.27,289.92 47.27,291.86 C47.27,291.86 47.27,421.53 47.27,421.53 C47.27,423.19 48.62,424.53 50.27,424.53 C50.27,424.53 50.77,424.53 50.77,424.53 C50.77,424.53 55.33,424.53 55.33,424.53 C55.33,424.53 181.46,424.53 181.46,424.53 C181.46,424.53 184.2,424.53 184.2,424.53 C184.2,424.53 187.7,424.53 187.7,424.53 C187.7,424.53 187.7,265.15 187.7,265.15 C187.7,263.15 186.01,261.53 183.98,261.66z M240.67,345.36 C227.9,345.34 217.52,334.95 217.52,322.11 C217.52,322.11 217.52,322.1 217.52,322.1 C217.52,320.75 216.77,319.45 215.52,318.92 C212.97,317.84 210.52,319.69 210.52,322.11 C210.52,334.89 200.12,345.29 187.33,345.29 C174.6,345.29 164.24,334.98 164.15,322.28 C164.13,320.41 162.74,318.73 160.87,318.62 C158.84,318.49 157.15,320.1 157.15,322.11 C157.15,334.89 146.74,345.29 133.96,345.29 C121.23,345.29 110.86,334.98 110.77,322.28 C110.76,320.41 109.37,318.73 107.5,318.62 C105.46,318.49 103.77,320.1 103.77,322.11 C103.77,322.12 103.77,322.13 103.77,322.13 C103.77,322.14 103.77,322.14 103.77,322.14 C103.77,322.15 103.77,322.15 103.77,322.16 C103.77,322.23 103.78,322.3 103.78,322.37 C103.78,322.37 103.77,322.37 103.77,322.37 C103.77,322.37 103.77,421.53 103.77,421.53 C103.77,423.19 105.12,424.53 106.77,424.53 C106.77,424.53 107.27,424.53 107.27,424.53 C107.27,424.53 110.11,424.53 110.11,424.53 C110.11,424.53 237.62,424.53 237.62,424.53 C237.62,424.53 240.7,424.53 240.7,424.53 C240.7,424.53 244.2,424.53 244.2,424.53 C244.2,424.53 244.2,348.82 244.2,348.82 C244.2,346.88 242.61,345.37 240.67,345.36z M240.67,345.36 C227.9,345.34 217.52,334.95 217.52,322.11 C217.52,322.11 217.52,322.1 217.52,322.1 C217.52,320.75 216.77,319.45 215.52,318.92 C212.97,317.84 210.52,319.69 210.52,322.11 C210.52,334.89 200.12,345.29 187.33,345.29 C174.6,345.29 164.24,334.98 164.15,322.28 C164.13,320.41 162.74,318.73 160.87,318.62 C158.84,318.49 157.15,320.1 157.15,322.11 C157.15,334.89 146.74,345.29 133.96,345.29 C121.23,345.29 110.86,334.98 110.77,322.28 C110.76,320.41 109.37,318.73 107.5,318.62 C105.46,318.49 103.77,320.1 103.77,322.11 C103.77,322.12 103.77,322.13 103.77,322.13 C103.77,322.14 103.77,322.14 103.77,322.14 C103.77,322.15 103.77,322.15 103.77,322.16 C103.77,322.23 103.78,322.3 103.78,322.37 C103.78,322.37 103.77,322.37 103.77,322.37 C103.77,322.37 103.77,421.53 103.77,421.53 C103.77,423.19 105.12,424.53 106.77,424.53 C106.77,424.53 107.27,424.53 107.27,424.53 C107.27,424.53 110.11,424.53 110.11,424.53 C110.11,424.53 237.62,424.53 237.62,424.53 C237.62,424.53 240.7,424.53 240.7,424.53 C240.7,424.53 244.2,424.53 244.2,424.53 C244.2,424.53 244.2,348.82 244.2,348.82 C244.2,346.88 242.61,345.37 240.67,345.36z M207.17,402.58 C195.12,402.58 185.31,392.27 185.22,379.56 C185.21,377.69 183.82,376.02 181.95,375.9 C179.91,375.77 178.22,377.39 178.22,379.39 C178.22,392.18 168.38,402.58 156.28,402.58 C144.18,402.58 134.34,392.18 134.34,379.39 C134.34,379.39 134.34,379.39 134.34,379.39 C134.34,379.39 134.34,379.38 134.34,379.38 C134.34,377.46 132.78,375.89 130.85,375.89 C130.85,375.89 130.83,375.89 130.83,375.89 C128.9,375.89 127.34,377.46 127.34,379.39 C127.34,379.43 127.34,379.47 127.34,379.51 C127.31,392.27 116.92,402.64 104.15,402.64 C91.37,402.64 80.97,392.24 80.97,379.46 C80.97,378.27 80.36,377.17 79.37,376.53 C77.99,375.63 76.09,375.79 74.86,377.1 C74.24,377.77 73.96,378.69 73.95,379.61 C73.87,392.33 63.51,402.65 50.77,402.65 C48.84,402.65 47.27,404.22 47.27,406.15 C47.27,406.2 47.28,406.24 47.29,406.28 C47.29,406.28 47.28,406.28 47.28,406.28 C47.28,406.28 47.28,421.53 47.28,421.53 C47.28,423.19 48.62,424.53 50.28,424.53 C50.28,424.53 50.77,424.53 50.77,424.53 C50.77,424.53 52.01,424.53 52.01,424.53 C52.01,424.53 207.06,424.53 207.06,424.53 C207.06,424.53 219.27,402.58 207.17,402.58z"/><g opacity="1" transform="matrix(1,0,0,1,117.48799896240234,286.11199951171875)"><path fill="rgb(255,255,255)" fill-opacity="1" d=" M66.48899841308594,-138.41200256347656 C64.62300109863281,-138.2949981689453 63.22700119018555,-136.6230010986328 63.2140007019043,-134.7530059814453 C63.124000549316406,-122.04499816894531 52.757999420166016,-111.73400115966797 40.02899932861328,-111.73400115966797 C27.299999237060547,-111.73400115966797 16.933000564575195,-122.04499816894531 16.843000411987305,-134.7530059814453 C16.829999923706055,-136.6230010986328 15.4350004196167,-138.2949981689453 13.569000244140625,-138.41200256347656 C11.534000396728516,-138.5399932861328 9.843000411987305,-136.92799377441406 9.843000411987305,-134.9199981689453 C9.843000411987305,-122.13500213623047 -0.5580000281333923,-111.73400115966797 -13.343000411987305,-111.73400115966797 C-26.07200050354004,-111.73400115966797 -36.4379997253418,-122.04499816894531 -36.52799987792969,-134.7530059814453 C-36.54100036621094,-136.6230010986328 -37.9370002746582,-138.2949981689453 -39.803001403808594,-138.41200256347656 C-41.8380012512207,-138.5399932861328 -43.52899932861328,-136.92799377441406 -43.52899932861328,-134.9199981689453 C-43.52899932861328,-134.9029998779297 -43.52899932861328,-134.88600158691406 -43.52899932861328,-134.86900329589844 C-43.52899932861328,-134.86300659179688 -43.52899932861328,-134.85800170898438 -43.52899932861328,-134.8520050048828 C-43.52899932861328,-122.0790023803711 -53.9109992980957,-111.68499755859375 -66.67900085449219,-111.66600036621094 C-68.61900329589844,-111.66300201416016 -70.21399688720703,-110.1510009765625 -70.21399688720703,-108.21099853515625 C-70.21399688720703,-108.21099853515625 -70.21399688720703,135.4199981689453 -70.21399688720703,135.4199981689453 C-70.21399688720703,137.07699584960938 -68.87100219726562,138.4199981689453 -67.21399688720703,138.4199981689453 C-67.21399688720703,138.4199981689453 -66.71399688720703,138.4199981689453 -66.71399688720703,138.4199981689453 C-66.71399688720703,138.4199981689453 -63.689998626708984,138.4199981689453 -63.689998626708984,138.4199981689453 C-63.689998626708984,138.4199981689453 66.26699829101562,138.4199981689453 66.26699829101562,138.4199981689453 C66.26699829101562,138.4199981689453 66.71399688720703,138.4199981689453 66.71399688720703,138.4199981689453 C66.71399688720703,138.4199981689453 70.21399688720703,138.4199981689453 70.21399688720703,138.4199981689453 C70.21399688720703,138.4199981689453 70.21399688720703,-134.9199981689453 70.21399688720703,-134.9199981689453 C70.21399688720703,-136.92799377441406 68.52400207519531,-138.5399932861328 66.48899841308594,-138.41200256347656z"/></g><g style="mix-blend-mode: multiply;" opacity="0.5" transform="matrix(1,0,0,1,117.48799896240234,286.11199951171875)"><path class="secondary" fill="rgb(75,179,253)" fill-opacity="1" d=" M66.48899841308594,-138.41200256347656 C64.62300109863281,-138.2949981689453 63.22700119018555,-136.6230010986328 63.2140007019043,-134.7530059814453 C63.124000549316406,-122.04499816894531 52.757999420166016,-111.73400115966797 40.02899932861328,-111.73400115966797 C27.299999237060547,-111.73400115966797 16.933000564575195,-122.04499816894531 16.843000411987305,-134.7530059814453 C16.829999923706055,-136.6230010986328 15.4350004196167,-138.2949981689453 13.569000244140625,-138.41200256347656 C11.534000396728516,-138.5399932861328 9.843000411987305,-136.92799377441406 9.843000411987305,-134.9199981689453 C9.843000411987305,-122.13500213623047 -0.5580000281333923,-111.73400115966797 -13.343000411987305,-111.73400115966797 C-26.07200050354004,-111.73400115966797 -36.4379997253418,-122.04499816894531 -36.52799987792969,-134.7530059814453 C-36.54100036621094,-136.6230010986328 -37.9370002746582,-138.2949981689453 -39.803001403808594,-138.41200256347656 C-41.8380012512207,-138.5399932861328 -43.52899932861328,-136.92799377441406 -43.52899932861328,-134.9199981689453 C-43.52899932861328,-134.9029998779297 -43.52899932861328,-134.88600158691406 -43.52899932861328,-134.86900329589844 C-43.52899932861328,-134.86300659179688 -43.52899932861328,-134.85800170898438 -43.52899932861328,-134.8520050048828 C-43.52899932861328,-122.0790023803711 -53.9109992980957,-111.68499755859375 -66.67900085449219,-111.66600036621094 C-68.61900329589844,-111.66300201416016 -70.21399688720703,-110.1510009765625 -70.21399688720703,-108.21099853515625 C-70.21399688720703,-108.21099853515625 -70.21399688720703,135.4199981689453 -70.21399688720703,135.4199981689453 C-70.21399688720703,137.07699584960938 -68.87100219726562,138.4199981689453 -67.21399688720703,138.4199981689453 C-67.21399688720703,138.4199981689453 -66.71399688720703,138.4199981689453 -66.71399688720703,138.4199981689453 C-66.71399688720703,138.4199981689453 -63.689998626708984,138.4199981689453 -63.689998626708984,138.4199981689453 C-63.689998626708984,138.4199981689453 66.26699829101562,138.4199981689453 66.26699829101562,138.4199981689453 C66.26699829101562,138.4199981689453 66.71399688720703,138.4199981689453 66.71399688720703,138.4199981689453 C66.71399688720703,138.4199981689453 70.21399688720703,138.4199981689453 70.21399688720703,138.4199981689453 C70.21399688720703,138.4199981689453 70.21399688720703,-134.9199981689453 70.21399688720703,-134.9199981689453 C70.21399688720703,-136.92799377441406 68.52400207519531,-138.5399932861328 66.48899841308594,-138.41200256347656z"/></g><g opacity="1" transform="matrix(1,0,0,1,173.98800659179688,314.64300537109375)"><path class="secondary" fill="rgb(75,179,253)" fill-opacity="1" d=" M70.21099853515625,-79.66899871826172 C70.19200134277344,-81.58599853515625 68.63500213623047,-83.13500213623047 66.71399688720703,-83.13500213623047 C53.92900085449219,-83.13500213623047 43.52899932861328,-93.53600311279297 43.52899932861328,-106.38899993896484 C43.52899932861328,-106.38899993896484 43.52899932861328,-106.39600372314453 43.52899932861328,-106.39600372314453 C43.52899932861328,-107.75 42.78099822998047,-109.0469970703125 41.534000396728516,-109.5739974975586 C38.97999954223633,-110.65299987792969 36.52899932861328,-108.80699920654297 36.52899932861328,-106.38899993896484 C36.52899932861328,-93.60399627685547 26.128000259399414,-83.2030029296875 13.343000411987305,-83.2030029296875 C0.6140000224113464,-83.2030029296875 -9.751999855041504,-93.51499938964844 -9.842000007629395,-106.2229995727539 C-9.854999542236328,-108.09300231933594 -11.25100040435791,-109.76499938964844 -13.116999626159668,-109.88200378417969 C-15.152000427246094,-110.01000213623047 -16.843000411987305,-108.39700317382812 -16.843000411987305,-106.38899993896484 C-16.843000411987305,-93.60399627685547 -27.243999481201172,-83.2030029296875 -40.02899932861328,-83.2030029296875 C-52.757999420166016,-83.2030029296875 -63.124000549316406,-93.51499938964844 -63.2140007019043,-106.2229995727539 C-63.22700119018555,-108.09300231933594 -64.62300109863281,-109.76499938964844 -66.48899841308594,-109.88200378417969 C-68.52400207519531,-110.01000213623047 -70.21399688720703,-108.39700317382812 -70.21399688720703,-106.38899993896484 C-70.21399688720703,-106.38099670410156 -70.21399688720703,-106.37300109863281 -70.21399688720703,-106.36499786376953 C-70.21399688720703,-106.36199951171875 -70.21399688720703,-106.35900115966797 -70.21399688720703,-106.35600280761719 C-70.21399688720703,-106.3499984741211 -70.21399688720703,-106.34500122070312 -70.21399688720703,-106.33899688720703 C-70.21399688720703,-106.33899688720703 -70.21399688720703,106.88899993896484 -70.21399688720703,106.88899993896484 C-70.21399688720703,108.5459976196289 -68.87100219726562,109.88899993896484 -67.21399688720703,109.88899993896484 C-67.21399688720703,109.88899993896484 -66.71399688720703,109.88899993896484 -66.71399688720703,109.88899993896484 C-66.71399688720703,109.88899993896484 66.71399688720703,109.88899993896484 66.71399688720703,109.88899993896484 C66.71399688720703,109.88899993896484 70.21399688720703,109.88899993896484 70.21399688720703,109.88899993896484 C70.21399688720703,109.88899993896484 70.21399688720703,-79.66899871826172 70.21399688720703,-79.66899871826172 C70.21399688720703,-79.66899871826172 70.21099853515625,-79.66899871826172 70.21099853515625,-79.66899871826172z"/></g><g style="mix-blend-mode: multiply;" opacity="0.5" transform="matrix(1,0,0,1,117.48799896240234,343.0929870605469)"><path class="secondary" fill="rgb(75,179,253)" fill-opacity="1" d=" M66.48899841308594,-81.43199920654297 C64.62300109863281,-81.31500244140625 63.22700119018555,-79.64299774169922 63.2140007019043,-77.77300262451172 C63.124000549316406,-65.06500244140625 52.757999420166016,-54.75299835205078 40.02899932861328,-54.75299835205078 C27.299999237060547,-54.75299835205078 16.933000564575195,-65.06500244140625 16.843000411987305,-77.77300262451172 C16.829999923706055,-79.64299774169922 15.4350004196167,-81.31500244140625 13.569000244140625,-81.43199920654297 C11.534000396728516,-81.55999755859375 9.843000411987305,-79.9469985961914 9.843000411987305,-77.93900299072266 C9.843000411987305,-65.15399932861328 -0.5580000281333923,-54.75299835205078 -13.343000411987305,-54.75299835205078 C-26.07200050354004,-54.75299835205078 -36.4379997253418,-65.06500244140625 -36.52799987792969,-77.77300262451172 C-36.54100036621094,-79.64299774169922 -37.9370002746582,-81.31500244140625 -39.803001403808594,-81.43199920654297 C-41.8380012512207,-81.55999755859375 -43.52899932861328,-79.9469985961914 -43.52899932861328,-77.93900299072266 C-43.52899932861328,-77.9219970703125 -43.52899932861328,-77.90599822998047 -43.52899932861328,-77.88899993896484 C-43.52899932861328,-77.88300323486328 -43.52899932861328,-77.87699890136719 -43.52899932861328,-77.87100219726562 C-43.52899932861328,-65.0979995727539 -53.9109992980957,-54.70399856567383 -66.67900085449219,-54.685001373291016 C-68.61900329589844,-54.68199920654297 -70.21399688720703,-53.17100143432617 -70.21399688720703,-51.23099899291992 C-70.21399688720703,-51.23099899291992 -70.21399688720703,78.43900299072266 -70.21399688720703,78.43900299072266 C-70.21399688720703,80.09600067138672 -68.87100219726562,81.43900299072266 -67.21399688720703,81.43900299072266 C-67.21399688720703,81.43900299072266 -66.71399688720703,81.43900299072266 -66.71399688720703,81.43900299072266 C-66.71399688720703,81.43900299072266 -62.15800094604492,81.43900299072266 -62.15800094604492,81.43900299072266 C-62.15800094604492,81.43900299072266 63.96900177001953,81.43900299072266 63.96900177001953,81.43900299072266 C63.96900177001953,81.43900299072266 66.71399688720703,81.43900299072266 66.71399688720703,81.43900299072266 C66.71399688720703,81.43900299072266 70.21399688720703,81.43900299072266 70.21399688720703,81.43900299072266 C70.21399688720703,81.43900299072266 70.21399688720703,-77.93900299072266 70.21399688720703,-77.93900299072266 C70.21399688720703,-79.9469985961914 68.52400207519531,-81.55999755859375 66.48899841308594,-81.43199920654297z"/></g><g opacity="1" transform="matrix(1,0,0,1,173.98800659179688,371.57000732421875)"><path class="secondary" fill="rgb(75,179,253)" fill-opacity="1" d=" M66.67900085449219,-26.20800018310547 C53.9109992980957,-26.226999282836914 43.52899932861328,-36.62099838256836 43.52899932861328,-49.46200180053711 C43.52899932861328,-49.46200180053711 43.52899932861328,-49.46900177001953 43.52899932861328,-49.46900177001953 C43.52899932861328,-50.823001861572266 42.78099822998047,-52.119998931884766 41.534000396728516,-52.64699935913086 C38.97999954223633,-53.72600173950195 36.52899932861328,-51.880001068115234 36.52899932861328,-49.46200180053711 C36.52899932861328,-36.676998138427734 26.128000259399414,-26.275999069213867 13.343000411987305,-26.275999069213867 C0.6140000224113464,-26.275999069213867 -9.751999855041504,-36.58700180053711 -9.842000007629395,-49.29499816894531 C-9.854999542236328,-51.165000915527344 -11.25100040435791,-52.8380012512207 -13.116999626159668,-52.95500183105469 C-15.152000427246094,-53.08300018310547 -16.843000411987305,-51.470001220703125 -16.843000411987305,-49.46200180053711 C-16.843000411987305,-36.676998138427734 -27.243999481201172,-26.275999069213867 -40.02899932861328,-26.275999069213867 C-52.757999420166016,-26.275999069213867 -63.124000549316406,-36.58700180053711 -63.2140007019043,-49.29499816894531 C-63.22700119018555,-51.165000915527344 -64.62300109863281,-52.8380012512207 -66.48899841308594,-52.95500183105469 C-68.52400207519531,-53.08300018310547 -70.21399688720703,-51.470001220703125 -70.21399688720703,-49.46200180053711 C-70.21399688720703,-49.45399856567383 -70.21399688720703,-49.44499969482422 -70.21399688720703,-49.4370002746582 C-70.21399688720703,-49.433998107910156 -70.21399688720703,-49.43199920654297 -70.21399688720703,-49.42900085449219 C-70.21399688720703,-49.42300033569336 -70.21399688720703,-49.417999267578125 -70.21399688720703,-49.4119987487793 C-70.21399688720703,-49.34000015258789 -70.20800018310547,-49.27000045776367 -70.20700073242188,-49.198001861572266 C-70.20700073242188,-49.198001861572266 -70.21399688720703,-49.198001861572266 -70.21399688720703,-49.198001861572266 C-70.21399688720703,-49.198001861572266 -70.21399688720703,49.96200180053711 -70.21399688720703,49.96200180053711 C-70.21399688720703,51.61899948120117 -68.87100219726562,52.96200180053711 -67.21399688720703,52.96200180053711 C-67.21399688720703,52.96200180053711 -66.71399688720703,52.96200180053711 -66.71399688720703,52.96200180053711 C-66.71399688720703,52.96200180053711 -63.88199996948242,52.96200180053711 -63.88199996948242,52.96200180053711 C-63.88199996948242,52.96200180053711 63.62900161743164,52.96200180053711 63.62900161743164,52.96200180053711 C63.62900161743164,52.96200180053711 66.71399688720703,52.96200180053711 66.71399688720703,52.96200180053711 C66.71399688720703,52.96200180053711 70.21399688720703,52.96200180053711 70.21399688720703,52.96200180053711 C70.21399688720703,52.96200180053711 70.21399688720703,-22.753999710083008 70.21399688720703,-22.753999710083008 C70.21399688720703,-24.694000244140625 68.61900329589844,-26.204999923706055 66.67900085449219,-26.20800018310547z"/></g><g style="mix-blend-mode: multiply;" opacity="0.75" transform="matrix(1,0,0,1,173.98800659179688,371.57000732421875)"><path class="secondary" fill="rgb(75,179,253)" fill-opacity="1" d=" M66.67900085449219,-26.20800018310547 C53.9109992980957,-26.226999282836914 43.52899932861328,-36.62099838256836 43.52899932861328,-49.46200180053711 C43.52899932861328,-49.46200180053711 43.52899932861328,-49.46900177001953 43.52899932861328,-49.46900177001953 C43.52899932861328,-50.823001861572266 42.78099822998047,-52.119998931884766 41.534000396728516,-52.64699935913086 C38.97999954223633,-53.72600173950195 36.52899932861328,-51.880001068115234 36.52899932861328,-49.46200180053711 C36.52899932861328,-36.676998138427734 26.128000259399414,-26.275999069213867 13.343000411987305,-26.275999069213867 C0.6140000224113464,-26.275999069213867 -9.751999855041504,-36.58700180053711 -9.842000007629395,-49.29499816894531 C-9.854999542236328,-51.165000915527344 -11.25100040435791,-52.8380012512207 -13.116999626159668,-52.95500183105469 C-15.152000427246094,-53.08300018310547 -16.843000411987305,-51.470001220703125 -16.843000411987305,-49.46200180053711 C-16.843000411987305,-36.676998138427734 -27.243999481201172,-26.275999069213867 -40.02899932861328,-26.275999069213867 C-52.757999420166016,-26.275999069213867 -63.124000549316406,-36.58700180053711 -63.2140007019043,-49.29499816894531 C-63.22700119018555,-51.165000915527344 -64.62300109863281,-52.8380012512207 -66.48899841308594,-52.95500183105469 C-68.52400207519531,-53.08300018310547 -70.21399688720703,-51.470001220703125 -70.21399688720703,-49.46200180053711 C-70.21399688720703,-49.45399856567383 -70.21399688720703,-49.44499969482422 -70.21399688720703,-49.4370002746582 C-70.21399688720703,-49.433998107910156 -70.21399688720703,-49.43199920654297 -70.21399688720703,-49.42900085449219 C-70.21399688720703,-49.42300033569336 -70.21399688720703,-49.417999267578125 -70.21399688720703,-49.4119987487793 C-70.21399688720703,-49.34000015258789 -70.20800018310547,-49.27000045776367 -70.20700073242188,-49.198001861572266 C-70.20700073242188,-49.198001861572266 -70.21399688720703,-49.198001861572266 -70.21399688720703,-49.198001861572266 C-70.21399688720703,-49.198001861572266 -70.21399688720703,49.96200180053711 -70.21399688720703,49.96200180053711 C-70.21399688720703,51.61899948120117 -68.87100219726562,52.96200180053711 -67.21399688720703,52.96200180053711 C-67.21399688720703,52.96200180053711 -66.71399688720703,52.96200180053711 -66.71399688720703,52.96200180053711 C-66.71399688720703,52.96200180053711 -63.88199996948242,52.96200180053711 -63.88199996948242,52.96200180053711 C-63.88199996948242,52.96200180053711 63.62900161743164,52.96200180053711 63.62900161743164,52.96200180053711 C63.62900161743164,52.96200180053711 66.71399688720703,52.96200180053711 66.71399688720703,52.96200180053711 C66.71399688720703,52.96200180053711 70.21399688720703,52.96200180053711 70.21399688720703,52.96200180053711 C70.21399688720703,52.96200180053711 70.21399688720703,-22.753999710083008 70.21399688720703,-22.753999710083008 C70.21399688720703,-24.694000244140625 68.61900329589844,-26.204999923706055 66.67900085449219,-26.20800018310547z"/></g><g style="mix-blend-mode: multiply;" opacity="0.5" transform="matrix(1,0,0,1,208.88299560546875,400.093994140625)"><path class="secondary" fill="rgb(75,179,253)" fill-opacity="1" d=" M-1.715999960899353,2.486999988555908 C-13.76200008392334,2.486999988555908 -23.57200050354004,-7.822999954223633 -23.658000946044922,-20.530000686645508 C-23.67099952697754,-22.400999069213867 -25.066999435424805,-24.076000213623047 -26.934999465942383,-24.191999435424805 C-28.9689998626709,-24.319000244140625 -30.659000396728516,-22.70599937438965 -30.659000396728516,-20.698999404907227 C-30.659000396728516,-7.914000034332275 -40.50199890136719,2.486999988555908 -52.60200119018555,2.486999988555908 C-64.7020034790039,2.486999988555908 -74.5459976196289,-7.914000034332275 -74.5459976196289,-20.698999404907227 C-74.5459976196289,-20.700000762939453 -74.5459976196289,-20.701000213623047 -74.5459976196289,-20.70199966430664 C-74.5459976196289,-20.70199966430664 -74.5459976196289,-20.71299934387207 -74.5459976196289,-20.71299934387207 C-74.5459976196289,-22.63800048828125 -76.10700225830078,-24.198999404907227 -78.03199768066406,-24.198999404907227 C-78.03199768066406,-24.198999404907227 -78.052001953125,-24.198999404907227 -78.052001953125,-24.198999404907227 C-79.98400115966797,-24.198999404907227 -81.5459976196289,-22.631000518798828 -81.5459976196289,-20.698999404907227 C-81.5459976196289,-20.66200065612793 -81.54499816894531,-20.625 -81.54499816894531,-20.58799934387207 C-81.5719985961914,-7.826000213623047 -91.96299743652344,2.5490000247955322 -104.73100280761719,2.5490000247955322 C-117.51599884033203,2.5490000247955322 -127.91699981689453,-7.8520002365112305 -127.91699981689453,-20.636999130249023 C-127.91699981689453,-21.819000244140625 -128.52000427246094,-22.91900062561035 -129.50999450683594,-23.565000534057617 C-130.89300537109375,-24.468000411987305 -132.7949981689453,-24.304000854492188 -134.0189971923828,-22.993000030517578 C-134.64500427246094,-22.32200050354004 -134.9239959716797,-21.40399932861328 -134.92999267578125,-20.486000061035156 C-135.00900268554688,-7.765999794006348 -145.37600708007812,2.558000087738037 -158.10899353027344,2.558000087738037 C-160.04200744628906,2.558000087738037 -161.60899353027344,4.125 -161.60899353027344,6.058000087738037 C-161.60899353027344,6.1020002365112305 -161.59800720214844,6.144000053405762 -161.5959930419922,6.188000202178955 C-161.5959930419922,6.188000202178955 -161.60400390625,6.188000202178955 -161.60400390625,6.188000202178955 C-161.60400390625,6.188000202178955 -161.60400390625,21.437999725341797 -161.60400390625,21.437999725341797 C-161.60400390625,23.094999313354492 -160.26100158691406,24.437999725341797 -158.60400390625,24.437999725341797 C-158.60400390625,24.437999725341797 -158.10899353027344,24.437999725341797 -158.10899353027344,24.437999725341797 C-158.10899353027344,24.437999725341797 -156.8719940185547,24.437999725341797 -156.8719940185547,24.437999725341797 C-156.8719940185547,24.437999725341797 -1.8200000524520874,24.437999725341797 -1.8200000524520874,24.437999725341797 C-1.8200000524520874,24.437999725341797 10.383999824523926,2.486999988555908 -1.715999960899353,2.486999988555908z"/><path stroke-linecap="butt" stroke-linejoin="miter" fill-opacity="0" stroke-miterlimit="4" stroke="rgb(255,255,255)" stroke-opacity="1" stroke-width="2" d=" M-1.715999960899353,2.486999988555908 C-13.76200008392334,2.486999988555908 -23.57200050354004,-7.822999954223633 -23.658000946044922,-20.530000686645508 C-23.67099952697754,-22.400999069213867 -25.066999435424805,-24.076000213623047 -26.934999465942383,-24.191999435424805 C-28.9689998626709,-24.319000244140625 -30.659000396728516,-22.70599937438965 -30.659000396728516,-20.698999404907227 C-30.659000396728516,-7.914000034332275 -40.50199890136719,2.486999988555908 -52.60200119018555,2.486999988555908 C-64.7020034790039,2.486999988555908 -74.5459976196289,-7.914000034332275 -74.5459976196289,-20.698999404907227 C-74.5459976196289,-20.700000762939453 -74.5459976196289,-20.701000213623047 -74.5459976196289,-20.70199966430664 C-74.5459976196289,-20.70199966430664 -74.5459976196289,-20.71299934387207 -74.5459976196289,-20.71299934387207 C-74.5459976196289,-22.63800048828125 -76.10700225830078,-24.198999404907227 -78.03199768066406,-24.198999404907227 C-78.03199768066406,-24.198999404907227 -78.052001953125,-24.198999404907227 -78.052001953125,-24.198999404907227 C-79.98400115966797,-24.198999404907227 -81.5459976196289,-22.631000518798828 -81.5459976196289,-20.698999404907227 C-81.5459976196289,-20.66200065612793 -81.54499816894531,-20.625 -81.54499816894531,-20.58799934387207 C-81.5719985961914,-7.826000213623047 -91.96299743652344,2.5490000247955322 -104.73100280761719,2.5490000247955322 C-117.51599884033203,2.5490000247955322 -127.91699981689453,-7.8520002365112305 -127.91699981689453,-20.636999130249023 C-127.91699981689453,-21.819000244140625 -128.52000427246094,-22.91900062561035 -129.50999450683594,-23.565000534057617 C-130.89300537109375,-24.468000411987305 -132.7949981689453,-24.304000854492188 -134.0189971923828,-22.993000030517578 C-134.64500427246094,-22.32200050354004 -134.9239959716797,-21.40399932861328 -134.92999267578125,-20.486000061035156 C-135.00900268554688,-7.765999794006348 -145.37600708007812,2.558000087738037 -158.10899353027344,2.558000087738037 C-160.04200744628906,2.558000087738037 -161.60899353027344,4.125 -161.60899353027344,6.058000087738037 C-161.60899353027344,6.1020002365112305 -161.59800720214844,6.144000053405762 -161.5959930419922,6.188000202178955 C-161.5959930419922,6.188000202178955 -161.60400390625,6.188000202178955 -161.60400390625,6.188000202178955 C-161.60400390625,6.188000202178955 -161.60400390625,21.437999725341797 -161.60400390625,21.437999725341797 C-161.60400390625,23.094999313354492 -160.26100158691406,24.437999725341797 -158.60400390625,24.437999725341797 C-158.60400390625,24.437999725341797 -158.10899353027344,24.437999725341797 -158.10899353027344,24.437999725341797 C-158.10899353027344,24.437999725341797 -156.8719940185547,24.437999725341797 -156.8719940185547,24.437999725341797 C-156.8719940185547,24.437999725341797 -1.8200000524520874,24.437999725341797 -1.8200000524520874,24.437999725341797 C-1.8200000524520874,24.437999725341797 10.383999824523926,2.486999988555908 -1.715999960899353,2.486999988555908z"/></g></g></g><g style="display: block;" mask="url(#__lottie_element_43_2)"><g transform="matrix(1,0,0,1,-51.31298828125,-30.999984741210938)" opacity="1"><g opacity="1" transform="matrix(1,0,0,1,117.48799896240234,286.11199951171875)"><path stroke-linecap="butt" stroke-linejoin="miter" fill-opacity="0" stroke-miterlimit="4" class="primary" stroke="rgb(18,19,49)" stroke-opacity="1" stroke-width="7" d=" M66.48899841308594,-138.41200256347656 C64.62300109863281,-138.2949981689453 63.22700119018555,-136.6230010986328 63.2140007019043,-134.7530059814453 C63.124000549316406,-122.04499816894531 52.757999420166016,-111.73400115966797 40.02899932861328,-111.73400115966797 C27.299999237060547,-111.73400115966797 16.933000564575195,-122.04499816894531 16.843000411987305,-134.7530059814453 C16.829999923706055,-136.6230010986328 15.4350004196167,-138.2949981689453 13.569000244140625,-138.41200256347656 C11.534000396728516,-138.5399932861328 9.843000411987305,-136.92799377441406 9.843000411987305,-134.9199981689453 C9.843000411987305,-122.13500213623047 -0.5580000281333923,-111.73400115966797 -13.343000411987305,-111.73400115966797 C-26.07200050354004,-111.73400115966797 -36.4379997253418,-122.04499816894531 -36.52799987792969,-134.7530059814453 C-36.54100036621094,-136.6230010986328 -37.9370002746582,-138.2949981689453 -39.803001403808594,-138.41200256347656 C-41.8380012512207,-138.5399932861328 -43.52899932861328,-136.92799377441406 -43.52899932861328,-134.9199981689453 C-43.52899932861328,-134.9029998779297 -43.52899932861328,-134.88600158691406 -43.52899932861328,-134.86900329589844 C-43.52899932861328,-134.86300659179688 -43.52899932861328,-134.85800170898438 -43.52899932861328,-134.8520050048828 C-43.52899932861328,-122.0790023803711 -53.9109992980957,-111.68499755859375 -66.67900085449219,-111.66600036621094 C-68.61900329589844,-111.66300201416016 -70.21399688720703,-110.1510009765625 -70.21399688720703,-108.21099853515625 C-70.21399688720703,-108.21099853515625 -70.21399688720703,135.4199981689453 -70.21399688720703,135.4199981689453 C-70.21399688720703,137.07699584960938 -68.87100219726562,138.4199981689453 -67.21399688720703,138.4199981689453 C-67.21399688720703,138.4199981689453 -66.71399688720703,138.4199981689453 -66.71399688720703,138.4199981689453 C-66.71399688720703,138.4199981689453 -63.689998626708984,138.4199981689453 -63.689998626708984,138.4199981689453 C-63.689998626708984,138.4199981689453 66.26699829101562,138.4199981689453 66.26699829101562,138.4199981689453 C66.26699829101562,138.4199981689453 66.71399688720703,138.4199981689453 66.71399688720703,138.4199981689453 C66.71399688720703,138.4199981689453 70.21399688720703,138.4199981689453 70.21399688720703,138.4199981689453 C70.21399688720703,138.4199981689453 70.21399688720703,-134.9199981689453 70.21399688720703,-134.9199981689453 C70.21399688720703,-136.92799377441406 68.52400207519531,-138.5399932861328 66.48899841308594,-138.41200256347656z"/></g><g opacity="1" transform="matrix(1,0,0,1,173.98800659179688,314.64300537109375)"><path stroke-linecap="butt" stroke-linejoin="miter" fill-opacity="0" stroke-miterlimit="4" class="primary" stroke="rgb(18,19,49)" stroke-opacity="1" stroke-width="7" d=" M70.21099853515625,-79.66899871826172 C70.19200134277344,-81.58599853515625 68.63500213623047,-83.13500213623047 66.71399688720703,-83.13500213623047 C53.92900085449219,-83.13500213623047 43.52899932861328,-93.53600311279297 43.52899932861328,-106.38899993896484 C43.52899932861328,-106.38899993896484 43.52899932861328,-106.39600372314453 43.52899932861328,-106.39600372314453 C43.52899932861328,-107.75 42.78099822998047,-109.0469970703125 41.534000396728516,-109.5739974975586 C38.97999954223633,-110.65299987792969 36.52899932861328,-108.80699920654297 36.52899932861328,-106.38899993896484 C36.52899932861328,-93.60399627685547 26.128000259399414,-83.2030029296875 13.343000411987305,-83.2030029296875 C0.6140000224113464,-83.2030029296875 -9.751999855041504,-93.51499938964844 -9.842000007629395,-106.2229995727539 C-9.854999542236328,-108.09300231933594 -11.25100040435791,-109.76499938964844 -13.116999626159668,-109.88200378417969 C-15.152000427246094,-110.01000213623047 -16.843000411987305,-108.39700317382812 -16.843000411987305,-106.38899993896484 C-16.843000411987305,-93.60399627685547 -27.243999481201172,-83.2030029296875 -40.02899932861328,-83.2030029296875 C-52.757999420166016,-83.2030029296875 -63.124000549316406,-93.51499938964844 -63.2140007019043,-106.2229995727539 C-63.22700119018555,-108.09300231933594 -64.62300109863281,-109.76499938964844 -66.48899841308594,-109.88200378417969 C-68.52400207519531,-110.01000213623047 -70.21399688720703,-108.39700317382812 -70.21399688720703,-106.38899993896484 C-70.21399688720703,-106.38099670410156 -70.21399688720703,-106.37300109863281 -70.21399688720703,-106.36499786376953 C-70.21399688720703,-106.36199951171875 -70.21399688720703,-106.35900115966797 -70.21399688720703,-106.35600280761719 C-70.21399688720703,-106.3499984741211 -70.21399688720703,-106.34500122070312 -70.21399688720703,-106.33899688720703 C-70.21399688720703,-106.33899688720703 -70.21399688720703,106.88899993896484 -70.21399688720703,106.88899993896484 C-70.21399688720703,108.5459976196289 -68.87100219726562,109.88899993896484 -67.21399688720703,109.88899993896484 C-67.21399688720703,109.88899993896484 -66.71399688720703,109.88899993896484 -66.71399688720703,109.88899993896484 C-66.71399688720703,109.88899993896484 66.71399688720703,109.88899993896484 66.71399688720703,109.88899993896484 C66.71399688720703,109.88899993896484 70.21399688720703,109.88899993896484 70.21399688720703,109.88899993896484 C70.21399688720703,109.88899993896484 70.21399688720703,-79.66899871826172 70.21399688720703,-79.66899871826172 C70.21399688720703,-79.66899871826172 70.21099853515625,-79.66899871826172 70.21099853515625,-79.66899871826172z"/></g><g opacity="1" transform="matrix(1,0,0,1,117.48799896240234,343.0929870605469)"><path stroke-linecap="butt" stroke-linejoin="miter" fill-opacity="0" stroke-miterlimit="4" class="primary" stroke="rgb(18,19,49)" stroke-opacity="1" stroke-width="7" d=" M66.48899841308594,-81.43199920654297 C64.62300109863281,-81.31500244140625 63.22700119018555,-79.64299774169922 63.2140007019043,-77.77300262451172 C63.124000549316406,-65.06500244140625 52.757999420166016,-54.75299835205078 40.02899932861328,-54.75299835205078 C27.299999237060547,-54.75299835205078 16.933000564575195,-65.06500244140625 16.843000411987305,-77.77300262451172 C16.829999923706055,-79.64299774169922 15.4350004196167,-81.31500244140625 13.569000244140625,-81.43199920654297 C11.534000396728516,-81.55999755859375 9.843000411987305,-79.9469985961914 9.843000411987305,-77.93900299072266 C9.843000411987305,-65.15399932861328 -0.5580000281333923,-54.75299835205078 -13.343000411987305,-54.75299835205078 C-26.07200050354004,-54.75299835205078 -36.4379997253418,-65.06500244140625 -36.52799987792969,-77.77300262451172 C-36.54100036621094,-79.64299774169922 -37.9370002746582,-81.31500244140625 -39.803001403808594,-81.43199920654297 C-41.8380012512207,-81.55999755859375 -43.52899932861328,-79.9469985961914 -43.52899932861328,-77.93900299072266 C-43.52899932861328,-77.9219970703125 -43.52899932861328,-77.90599822998047 -43.52899932861328,-77.88899993896484 C-43.52899932861328,-77.88300323486328 -43.52899932861328,-77.87699890136719 -43.52899932861328,-77.87100219726562 C-43.52899932861328,-65.0979995727539 -53.9109992980957,-54.70399856567383 -66.67900085449219,-54.685001373291016 C-68.61900329589844,-54.68199920654297 -70.21399688720703,-53.17100143432617 -70.21399688720703,-51.23099899291992 C-70.21399688720703,-51.23099899291992 -70.21399688720703,78.43900299072266 -70.21399688720703,78.43900299072266 C-70.21399688720703,80.09600067138672 -68.87100219726562,81.43900299072266 -67.21399688720703,81.43900299072266 C-67.21399688720703,81.43900299072266 -66.71399688720703,81.43900299072266 -66.71399688720703,81.43900299072266 C-66.71399688720703,81.43900299072266 -62.15800094604492,81.43900299072266 -62.15800094604492,81.43900299072266 C-62.15800094604492,81.43900299072266 63.96900177001953,81.43900299072266 63.96900177001953,81.43900299072266 C63.96900177001953,81.43900299072266 66.71399688720703,81.43900299072266 66.71399688720703,81.43900299072266 C66.71399688720703,81.43900299072266 70.21399688720703,81.43900299072266 70.21399688720703,81.43900299072266 C70.21399688720703,81.43900299072266 70.21399688720703,-77.93900299072266 70.21399688720703,-77.93900299072266 C70.21399688720703,-79.9469985961914 68.52400207519531,-81.55999755859375 66.48899841308594,-81.43199920654297z"/></g><g opacity="1" transform="matrix(1,0,0,1,173.98800659179688,371.57000732421875)"><path stroke-linecap="butt" stroke-linejoin="miter" fill-opacity="0" stroke-miterlimit="4" class="primary" stroke="rgb(18,19,49)" stroke-opacity="1" stroke-width="7" d=" M66.67900085449219,-26.20800018310547 C53.9109992980957,-26.226999282836914 43.52899932861328,-36.62099838256836 43.52899932861328,-49.46200180053711 C43.52899932861328,-49.46200180053711 43.52899932861328,-49.46900177001953 43.52899932861328,-49.46900177001953 C43.52899932861328,-50.823001861572266 42.78099822998047,-52.119998931884766 41.534000396728516,-52.64699935913086 C38.97999954223633,-53.72600173950195 36.52899932861328,-51.880001068115234 36.52899932861328,-49.46200180053711 C36.52899932861328,-36.676998138427734 26.128000259399414,-26.275999069213867 13.343000411987305,-26.275999069213867 C0.6140000224113464,-26.275999069213867 -9.751999855041504,-36.58700180053711 -9.842000007629395,-49.29499816894531 C-9.854999542236328,-51.165000915527344 -11.25100040435791,-52.8380012512207 -13.116999626159668,-52.95500183105469 C-15.152000427246094,-53.08300018310547 -16.843000411987305,-51.470001220703125 -16.843000411987305,-49.46200180053711 C-16.843000411987305,-36.676998138427734 -27.243999481201172,-26.275999069213867 -40.02899932861328,-26.275999069213867 C-52.757999420166016,-26.275999069213867 -63.124000549316406,-36.58700180053711 -63.2140007019043,-49.29499816894531 C-63.22700119018555,-51.165000915527344 -64.62300109863281,-52.8380012512207 -66.48899841308594,-52.95500183105469 C-68.52400207519531,-53.08300018310547 -70.21399688720703,-51.470001220703125 -70.21399688720703,-49.46200180053711 C-70.21399688720703,-49.45399856567383 -70.21399688720703,-49.44499969482422 -70.21399688720703,-49.4370002746582 C-70.21399688720703,-49.433998107910156 -70.21399688720703,-49.43199920654297 -70.21399688720703,-49.42900085449219 C-70.21399688720703,-49.42300033569336 -70.21399688720703,-49.417999267578125 -70.21399688720703,-49.4119987487793 C-70.21399688720703,-49.34000015258789 -70.20800018310547,-49.27000045776367 -70.20700073242188,-49.198001861572266 C-70.20700073242188,-49.198001861572266 -70.21399688720703,-49.198001861572266 -70.21399688720703,-49.198001861572266 C-70.21399688720703,-49.198001861572266 -70.21399688720703,49.96200180053711 -70.21399688720703,49.96200180053711 C-70.21399688720703,51.61899948120117 -68.87100219726562,52.96200180053711 -67.21399688720703,52.96200180053711 C-67.21399688720703,52.96200180053711 -66.71399688720703,52.96200180053711 -66.71399688720703,52.96200180053711 C-66.71399688720703,52.96200180053711 -63.88199996948242,52.96200180053711 -63.88199996948242,52.96200180053711 C-63.88199996948242,52.96200180053711 63.62900161743164,52.96200180053711 63.62900161743164,52.96200180053711 C63.62900161743164,52.96200180053711 66.71399688720703,52.96200180053711 66.71399688720703,52.96200180053711 C66.71399688720703,52.96200180053711 70.21399688720703,52.96200180053711 70.21399688720703,52.96200180053711 C70.21399688720703,52.96200180053711 70.21399688720703,-22.753999710083008 70.21399688720703,-22.753999710083008 C70.21399688720703,-24.694000244140625 68.61900329589844,-26.204999923706055 66.67900085449219,-26.20800018310547z"/></g><g opacity="1" transform="matrix(1,0,0,1,208.88299560546875,400.093994140625)"><path stroke-linecap="butt" stroke-linejoin="miter" fill-opacity="0" stroke-miterlimit="4" class="primary" stroke="rgb(18,19,49)" stroke-opacity="1" stroke-width="7" d=" M-1.715999960899353,2.486999988555908 C-13.76200008392334,2.486999988555908 -23.57200050354004,-7.822999954223633 -23.658000946044922,-20.530000686645508 C-23.67099952697754,-22.400999069213867 -25.066999435424805,-24.076000213623047 -26.934999465942383,-24.191999435424805 C-28.9689998626709,-24.319000244140625 -30.659000396728516,-22.70599937438965 -30.659000396728516,-20.698999404907227 C-30.659000396728516,-7.914000034332275 -40.50199890136719,2.486999988555908 -52.60200119018555,2.486999988555908 C-64.7020034790039,2.486999988555908 -74.5459976196289,-7.914000034332275 -74.5459976196289,-20.698999404907227 C-74.5459976196289,-20.700000762939453 -74.5459976196289,-20.701000213623047 -74.5459976196289,-20.70199966430664 C-74.5459976196289,-20.70199966430664 -74.5459976196289,-20.71299934387207 -74.5459976196289,-20.71299934387207 C-74.5459976196289,-22.63800048828125 -76.10700225830078,-24.198999404907227 -78.03199768066406,-24.198999404907227 C-78.03199768066406,-24.198999404907227 -78.052001953125,-24.198999404907227 -78.052001953125,-24.198999404907227 C-79.98400115966797,-24.198999404907227 -81.5459976196289,-22.631000518798828 -81.5459976196289,-20.698999404907227 C-81.5459976196289,-20.66200065612793 -81.54499816894531,-20.625 -81.54499816894531,-20.58799934387207 C-81.5719985961914,-7.826000213623047 -91.96299743652344,2.5490000247955322 -104.73100280761719,2.5490000247955322 C-117.51599884033203,2.5490000247955322 -127.91699981689453,-7.8520002365112305 -127.91699981689453,-20.636999130249023 C-127.91699981689453,-21.819000244140625 -128.52000427246094,-22.91900062561035 -129.50999450683594,-23.565000534057617 C-130.89300537109375,-24.468000411987305 -132.7949981689453,-24.304000854492188 -134.0189971923828,-22.993000030517578 C-134.64500427246094,-22.32200050354004 -134.9239959716797,-21.40399932861328 -134.92999267578125,-20.486000061035156 C-135.00900268554688,-7.765999794006348 -145.37600708007812,2.558000087738037 -158.10899353027344,2.558000087738037 C-160.04200744628906,2.558000087738037 -161.60899353027344,4.125 -161.60899353027344,6.058000087738037 C-161.60899353027344,6.1020002365112305 -161.59800720214844,6.144000053405762 -161.5959930419922,6.188000202178955 C-161.5959930419922,6.188000202178955 -161.60400390625,6.188000202178955 -161.60400390625,6.188000202178955 C-161.60400390625,6.188000202178955 -161.60400390625,21.437999725341797 -161.60400390625,21.437999725341797 C-161.60400390625,23.094999313354492 -160.26100158691406,24.437999725341797 -158.60400390625,24.437999725341797 C-158.60400390625,24.437999725341797 -158.10899353027344,24.437999725341797 -158.10899353027344,24.437999725341797 C-158.10899353027344,24.437999725341797 -156.8719940185547,24.437999725341797 -156.8719940185547,24.437999725341797 C-156.8719940185547,24.437999725341797 -1.8200000524520874,24.437999725341797 -1.8200000524520874,24.437999725341797 C-1.8200000524520874,24.437999725341797 10.383999824523926,2.486999988555908 -1.715999960899353,2.486999988555908z"/></g></g></g><g style="display: block;" transform="matrix(1,0,0,1,-51,-30.999984741210938)" opacity="1"><g opacity="1" transform="matrix(1,0,0,1,246.0189971923828,269.1629943847656)"><path class="tertiary" fill="rgb(251,183,22)" fill-opacity="1" d=" M60.04499816894531,155.36900329589844 C60.04499816894531,155.36900329589844 -60.04499816894531,155.36900329589844 -60.04499816894531,155.36900329589844 C-60.04499816894531,155.36900329589844 -60.04499816894531,-155.36900329589844 -60.04499816894531,-155.36900329589844 C-60.04499816894531,-155.36900329589844 0.824999988079071,-155.36900329589844 0.824999988079071,-155.36900329589844 C0.824999988079071,-155.36900329589844 -6.671000003814697,-4.75 60.04499816894531,155.36900329589844z"/></g><g opacity="1" transform="matrix(1,0,0,1,217.16600036621094,101.77999877929688)"><path class="quaternary" fill="rgb(235,230,239)" fill-opacity="1" d=" M39.53499984741211,12.013999938964844 C39.53499984741211,12.013999938964844 -39.53499984741211,12.013999938964844 -39.53499984741211,12.013999938964844 C-41.19200134277344,12.013999938964844 -42.53499984741211,10.670999526977539 -42.53499984741211,9.013999938964844 C-42.53499984741211,9.013999938964844 -42.53499984741211,-9.013999938964844 -42.53499984741211,-9.013999938964844 C-42.53499984741211,-10.670999526977539 -41.19200134277344,-12.013999938964844 -39.53499984741211,-12.013999938964844 C-39.53499984741211,-12.013999938964844 39.53499984741211,-12.013999938964844 39.53499984741211,-12.013999938964844 C41.19200134277344,-12.013999938964844 42.53499984741211,-10.670999526977539 42.53499984741211,-9.013999938964844 C42.53499984741211,-9.013999938964844 42.53499984741211,9.013999938964844 42.53499984741211,9.013999938964844 C42.53499984741211,10.670999526977539 41.19200134277344,12.013999938964844 39.53499984741211,12.013999938964844z"/></g><g style="mix-blend-mode: multiply;" opacity="0.5" transform="matrix(1,0,0,1,186.13099670410156,101.77999877929688)"><path class="quaternary" fill="rgb(235,230,239)" fill-opacity="1" d=" M8.5,9.013999938964844 C8.5,9.013999938964844 8.5,-9.013999938964844 8.5,-9.013999938964844 C8.5,-10.670999526977539 9.843000411987305,-12.013999938964844 11.5,-12.013999938964844 C11.5,-12.013999938964844 -8.5,-12.013999938964844 -8.5,-12.013999938964844 C-10.156999588012695,-12.013999938964844 -11.5,-10.670999526977539 -11.5,-9.013999938964844 C-11.5,-9.013999938964844 -11.5,9.013999938964844 -11.5,9.013999938964844 C-11.5,10.670999526977539 -10.156999588012695,12.013999938964844 -8.5,12.013999938964844 C-8.5,12.013999938964844 11.5,12.013999938964844 11.5,12.013999938964844 C9.843000411987305,12.013999938964844 8.5,10.670999526977539 8.5,9.013999938964844z"/></g><g style="mix-blend-mode: multiply;" opacity="0.5" transform="matrix(1,0,0,1,195.9739990234375,269.1629943847656)"><path class="tertiary" fill="rgb(251,183,22)" fill-opacity="1" d=" M-10,-155.36900329589844 C-10,-155.36900329589844 -10,155.36900329589844 -10,155.36900329589844 C-10,155.36900329589844 10,155.36900329589844 10,155.36900329589844 C10,155.36900329589844 10,-155.36900329589844 10,-155.36900329589844 C10,-155.36900329589844 -10,-155.36900329589844 -10,-155.36900329589844z"/></g></g><g style="display: block;" transform="matrix(1,0,0,1,-51,-30.999984741210938)" opacity="1"><path stroke-linecap="butt" stroke-linejoin="miter" fill-opacity="0" stroke-miterlimit="4" class="primary" stroke="rgb(18,19,49)" stroke-opacity="1" stroke-width="7" d=" M306.06,424.53 C306.06,424.53 185.97,424.53 185.97,424.53 C185.97,424.53 185.97,113.79 185.97,113.79 C185.97,113.79 246.84,113.79 246.84,113.79 C246.84,113.79 239.35,264.41 306.06,424.53z M256.7,113.79 C256.7,113.79 177.63,113.79 177.63,113.79 C175.97,113.79 174.63,112.45 174.63,110.79 C174.63,110.79 174.63,92.77 174.63,92.77 C174.63,91.11 175.97,89.77 177.63,89.77 C177.63,89.77 256.7,89.77 256.7,89.77 C258.36,89.77 259.7,91.11 259.7,92.77 C259.7,92.77 259.7,110.79 259.7,110.79 C259.7,112.45 258.36,113.79 256.7,113.79z"/><g opacity="1" transform="matrix(1,0,0,1,246.0189971923828,269.1629943847656)"/><g opacity="1" transform="matrix(1,0,0,1,217.16600036621094,101.77999877929688)"/></g><g style="display: block;" transform="matrix(1,0,0,1,-51,-30.999984741210938)" opacity="1"><g opacity="1" transform="matrix(1,0,0,1,225.03799438476562,167.2530059814453)"><path class="quaternary" fill="rgb(235,230,239)" fill-opacity="1" d=" M36.0629997253418,21.486000061035156 C36.0629997253418,21.486000061035156 -39.06399917602539,21.486000061035156 -39.06399917602539,21.486000061035156 C-39.06399917602539,21.486000061035156 -39.06399917602539,-21.486000061035156 -39.06399917602539,-21.486000061035156 C-39.06399917602539,-21.486000061035156 30.06100082397461,-21.486000061035156 30.06100082397461,-21.486000061035156 C31.531999588012695,-21.486000061035156 32.7859992980957,-20.41900062561035 33.02199935913086,-18.966999053955078 C33.02199935913086,-18.966999053955078 39.02399826049805,18.006000518798828 39.02399826049805,18.006000518798828 C39.31999969482422,19.83099937438965 37.9119987487793,21.486000061035156 36.0629997253418,21.486000061035156z"/></g><g style="mix-blend-mode: multiply;" opacity="0.5" transform="matrix(1,0,0,1,195.9739990234375,167.2530059814453)"><path class="quaternary" fill="rgb(235,230,239)" fill-opacity="1" d=" M-10,-21.486000061035156 C-10,-21.486000061035156 -10,21.486000061035156 -10,21.486000061035156 C-10,21.486000061035156 10,21.486000061035156 10,21.486000061035156 C10,21.486000061035156 10,-21.486000061035156 10,-21.486000061035156 C10,-21.486000061035156 -10,-21.486000061035156 -10,-21.486000061035156z"/></g></g><g style="display: block;" transform="matrix(1,0,0,1,-51,-30.999984741210938)" opacity="1"><path stroke-linecap="butt" stroke-linejoin="miter" fill-opacity="0" stroke-miterlimit="4" class="primary" stroke="rgb(18,19,49)" stroke-opacity="1" stroke-width="7" d=" M261.1,188.74 C261.1,188.74 185.97,188.74 185.97,188.74 C185.97,188.74 185.97,145.77 185.97,145.77 C185.97,145.77 255.1,145.77 255.1,145.77 C256.57,145.77 257.82,146.83 258.06,148.29 C258.06,148.29 264.06,185.26 264.06,185.26 C264.36,187.08 262.95,188.74 261.1,188.74z"/><g opacity="1" transform="matrix(1,0,0,1,225.03799438476562,167.2530059814453)"/></g><g style="display: block;" transform="matrix(1,0,0,1,215,215)" opacity="1"><g opacity="1" transform="matrix(1,0,0,1,0,0)"><path stroke-linecap="round" stroke-linejoin="round" fill-opacity="0" class="primary" stroke="rgb(18,19,49)" stroke-opacity="1" stroke-width="7" d=" M-162.75,-98.43800354003906 C-162.75,-98.43800354003906 -163,178.75 -163,178.75 C-163,178.75 160.5,179 160.5,179 C160.5,179 160.5,75.5 160.5,75.5"/></g></g></g></g></svg>