<svg width="122" height="122" viewBox="0 0 122 122" fill="none" xmlns="http://www.w3.org/2000/svg">
<path d="M0 5C0 2.23858 2.23858 0 5 0C7.76142 0 10 2.23858 10 5C10 7.76142 7.76142 10 5 10C2.23858 10 0 7.76142 0 5Z" fill="#FCB717"/>
<path d="M16 5C16 2.23858 18.2386 0 21 0C23.7614 0 26 2.23858 26 5C26 7.76142 23.7614 10 21 10C18.2386 10 16 7.76142 16 5Z" fill="#FCB717"/>
<path d="M32 5C32 2.23858 34.2386 0 37 0C39.7614 0 42 2.23858 42 5C42 7.76142 39.7614 10 37 10C34.2386 10 32 7.76142 32 5Z" fill="#FCB717"/>
<path d="M48 5C48 2.23858 50.2386 0 53 0C55.7614 0 58 2.23858 58 5C58 7.76142 55.7614 10 53 10C50.2386 10 48 7.76142 48 5Z" fill="#FCB717"/>
<path d="M64 5C64 2.23858 66.2386 0 69 0C71.7614 0 74 2.23858 74 5C74 7.76142 71.7614 10 69 10C66.2386 10 64 7.76142 64 5Z" fill="#FCB717"/>
<path d="M80 5C80 2.23858 82.2386 0 85 0C87.7614 0 90 2.23858 90 5C90 7.76142 87.7614 10 85 10C82.2386 10 80 7.76142 80 5Z" fill="#FCB717"/>
<path d="M96 5C96 2.23858 98.2386 0 101 0C103.761 0 106 2.23858 106 5C106 7.76142 103.761 10 101 10C98.2386 10 96 7.76142 96 5Z" fill="#FCB717"/>
<path d="M112 5C112 2.23858 114.239 0 117 0C119.761 0 122 2.23858 122 5C122 7.76142 119.761 10 117 10C114.239 10 112 7.76142 112 5Z" fill="#FCB717"/>
<path d="M0 21C0 18.2386 2.23858 16 5 16C7.76142 16 10 18.2386 10 21C10 23.7614 7.76142 26 5 26C2.23858 26 0 23.7614 0 21Z" fill="#FCB717"/>
<path d="M16 21C16 18.2386 18.2386 16 21 16C23.7614 16 26 18.2386 26 21C26 23.7614 23.7614 26 21 26C18.2386 26 16 23.7614 16 21Z" fill="#FCB717"/>
<path d="M32 21C32 18.2386 34.2386 16 37 16C39.7614 16 42 18.2386 42 21C42 23.7614 39.7614 26 37 26C34.2386 26 32 23.7614 32 21Z" fill="#FCB717"/>
<path d="M48 21C48 18.2386 50.2386 16 53 16C55.7614 16 58 18.2386 58 21C58 23.7614 55.7614 26 53 26C50.2386 26 48 23.7614 48 21Z" fill="#FCB717"/>
<path d="M64 21C64 18.2386 66.2386 16 69 16C71.7614 16 74 18.2386 74 21C74 23.7614 71.7614 26 69 26C66.2386 26 64 23.7614 64 21Z" fill="#FCB717"/>
<path d="M80 21C80 18.2386 82.2386 16 85 16C87.7614 16 90 18.2386 90 21C90 23.7614 87.7614 26 85 26C82.2386 26 80 23.7614 80 21Z" fill="#FCB717"/>
<path d="M96 21C96 18.2386 98.2386 16 101 16C103.761 16 106 18.2386 106 21C106 23.7614 103.761 26 101 26C98.2386 26 96 23.7614 96 21Z" fill="#FCB717"/>
<path d="M112 21C112 18.2386 114.239 16 117 16C119.761 16 122 18.2386 122 21C122 23.7614 119.761 26 117 26C114.239 26 112 23.7614 112 21Z" fill="#FCB717"/>
<path d="M0 37C0 34.2386 2.23858 32 5 32C7.76142 32 10 34.2386 10 37C10 39.7614 7.76142 42 5 42C2.23858 42 0 39.7614 0 37Z" fill="#FCB717"/>
<path d="M16 37C16 34.2386 18.2386 32 21 32C23.7614 32 26 34.2386 26 37C26 39.7614 23.7614 42 21 42C18.2386 42 16 39.7614 16 37Z" fill="#FCB717"/>
<path d="M32 37C32 34.2386 34.2386 32 37 32C39.7614 32 42 34.2386 42 37C42 39.7614 39.7614 42 37 42C34.2386 42 32 39.7614 32 37Z" fill="#FCB717"/>
<path d="M48 37C48 34.2386 50.2386 32 53 32C55.7614 32 58 34.2386 58 37C58 39.7614 55.7614 42 53 42C50.2386 42 48 39.7614 48 37Z" fill="#FCB717"/>
<path d="M64 37C64 34.2386 66.2386 32 69 32C71.7614 32 74 34.2386 74 37C74 39.7614 71.7614 42 69 42C66.2386 42 64 39.7614 64 37Z" fill="#FCB717"/>
<path d="M80 37C80 34.2386 82.2386 32 85 32C87.7614 32 90 34.2386 90 37C90 39.7614 87.7614 42 85 42C82.2386 42 80 39.7614 80 37Z" fill="#FCB717"/>
<path d="M96 37C96 34.2386 98.2386 32 101 32C103.761 32 106 34.2386 106 37C106 39.7614 103.761 42 101 42C98.2386 42 96 39.7614 96 37Z" fill="#FCB717"/>
<path d="M112 37C112 34.2386 114.239 32 117 32C119.761 32 122 34.2386 122 37C122 39.7614 119.761 42 117 42C114.239 42 112 39.7614 112 37Z" fill="#FCB717"/>
<path d="M0 53C0 50.2386 2.23858 48 5 48C7.76142 48 10 50.2386 10 53C10 55.7614 7.76142 58 5 58C2.23858 58 0 55.7614 0 53Z" fill="#FCB717"/>
<path d="M16 53C16 50.2386 18.2386 48 21 48C23.7614 48 26 50.2386 26 53C26 55.7614 23.7614 58 21 58C18.2386 58 16 55.7614 16 53Z" fill="#FCB717"/>
<path d="M32 53C32 50.2386 34.2386 48 37 48C39.7614 48 42 50.2386 42 53C42 55.7614 39.7614 58 37 58C34.2386 58 32 55.7614 32 53Z" fill="#FCB717"/>
<path d="M48 53C48 50.2386 50.2386 48 53 48C55.7614 48 58 50.2386 58 53C58 55.7614 55.7614 58 53 58C50.2386 58 48 55.7614 48 53Z" fill="#FCB717"/>
<path d="M64 53C64 50.2386 66.2386 48 69 48C71.7614 48 74 50.2386 74 53C74 55.7614 71.7614 58 69 58C66.2386 58 64 55.7614 64 53Z" fill="#FCB717"/>
<path d="M80 53C80 50.2386 82.2386 48 85 48C87.7614 48 90 50.2386 90 53C90 55.7614 87.7614 58 85 58C82.2386 58 80 55.7614 80 53Z" fill="#FCB717"/>
<path d="M96 53C96 50.2386 98.2386 48 101 48C103.761 48 106 50.2386 106 53C106 55.7614 103.761 58 101 58C98.2386 58 96 55.7614 96 53Z" fill="#FCB717"/>
<path d="M112 53C112 50.2386 114.239 48 117 48C119.761 48 122 50.2386 122 53C122 55.7614 119.761 58 117 58C114.239 58 112 55.7614 112 53Z" fill="#FCB717"/>
<path d="M0 69C0 66.2386 2.23858 64 5 64C7.76142 64 10 66.2386 10 69C10 71.7614 7.76142 74 5 74C2.23858 74 0 71.7614 0 69Z" fill="#FCB717"/>
<path d="M16 69C16 66.2386 18.2386 64 21 64C23.7614 64 26 66.2386 26 69C26 71.7614 23.7614 74 21 74C18.2386 74 16 71.7614 16 69Z" fill="#FCB717"/>
<path d="M32 69C32 66.2386 34.2386 64 37 64C39.7614 64 42 66.2386 42 69C42 71.7614 39.7614 74 37 74C34.2386 74 32 71.7614 32 69Z" fill="#FCB717"/>
<path d="M48 69C48 66.2386 50.2386 64 53 64C55.7614 64 58 66.2386 58 69C58 71.7614 55.7614 74 53 74C50.2386 74 48 71.7614 48 69Z" fill="#FCB717"/>
<path d="M64 69C64 66.2386 66.2386 64 69 64C71.7614 64 74 66.2386 74 69C74 71.7614 71.7614 74 69 74C66.2386 74 64 71.7614 64 69Z" fill="#FCB717"/>
<path d="M80 69C80 66.2386 82.2386 64 85 64C87.7614 64 90 66.2386 90 69C90 71.7614 87.7614 74 85 74C82.2386 74 80 71.7614 80 69Z" fill="#FCB717"/>
<path d="M96 69C96 66.2386 98.2386 64 101 64C103.761 64 106 66.2386 106 69C106 71.7614 103.761 74 101 74C98.2386 74 96 71.7614 96 69Z" fill="#FCB717"/>
<path d="M112 69C112 66.2386 114.239 64 117 64C119.761 64 122 66.2386 122 69C122 71.7614 119.761 74 117 74C114.239 74 112 71.7614 112 69Z" fill="#FCB717"/>
<path d="M0 85C0 82.2386 2.23858 80 5 80C7.76142 80 10 82.2386 10 85C10 87.7614 7.76142 90 5 90C2.23858 90 0 87.7614 0 85Z" fill="#FCB717"/>
<path d="M16 85C16 82.2386 18.2386 80 21 80C23.7614 80 26 82.2386 26 85C26 87.7614 23.7614 90 21 90C18.2386 90 16 87.7614 16 85Z" fill="#FCB717"/>
<path d="M32 85C32 82.2386 34.2386 80 37 80C39.7614 80 42 82.2386 42 85C42 87.7614 39.7614 90 37 90C34.2386 90 32 87.7614 32 85Z" fill="#FCB717"/>
<path d="M48 85C48 82.2386 50.2386 80 53 80C55.7614 80 58 82.2386 58 85C58 87.7614 55.7614 90 53 90C50.2386 90 48 87.7614 48 85Z" fill="#FCB717"/>
<path d="M64 85C64 82.2386 66.2386 80 69 80C71.7614 80 74 82.2386 74 85C74 87.7614 71.7614 90 69 90C66.2386 90 64 87.7614 64 85Z" fill="#FCB717"/>
<path d="M80 85C80 82.2386 82.2386 80 85 80C87.7614 80 90 82.2386 90 85C90 87.7614 87.7614 90 85 90C82.2386 90 80 87.7614 80 85Z" fill="#FCB717"/>
<path d="M96 85C96 82.2386 98.2386 80 101 80C103.761 80 106 82.2386 106 85C106 87.7614 103.761 90 101 90C98.2386 90 96 87.7614 96 85Z" fill="#FCB717"/>
<path d="M112 85C112 82.2386 114.239 80 117 80C119.761 80 122 82.2386 122 85C122 87.7614 119.761 90 117 90C114.239 90 112 87.7614 112 85Z" fill="#FCB717"/>
<path d="M0 101C0 98.2386 2.23858 96 5 96C7.76142 96 10 98.2386 10 101C10 103.761 7.76142 106 5 106C2.23858 106 0 103.761 0 101Z" fill="#FCB717"/>
<path d="M16 101C16 98.2386 18.2386 96 21 96C23.7614 96 26 98.2386 26 101C26 103.761 23.7614 106 21 106C18.2386 106 16 103.761 16 101Z" fill="#FCB717"/>
<path d="M32 101C32 98.2386 34.2386 96 37 96C39.7614 96 42 98.2386 42 101C42 103.761 39.7614 106 37 106C34.2386 106 32 103.761 32 101Z" fill="#FCB717"/>
<path d="M48 101C48 98.2386 50.2386 96 53 96C55.7614 96 58 98.2386 58 101C58 103.761 55.7614 106 53 106C50.2386 106 48 103.761 48 101Z" fill="#FCB717"/>
<path d="M64 101C64 98.2386 66.2386 96 69 96C71.7614 96 74 98.2386 74 101C74 103.761 71.7614 106 69 106C66.2386 106 64 103.761 64 101Z" fill="#FCB717"/>
<path d="M80 101C80 98.2386 82.2386 96 85 96C87.7614 96 90 98.2386 90 101C90 103.761 87.7614 106 85 106C82.2386 106 80 103.761 80 101Z" fill="#FCB717"/>
<path d="M96 101C96 98.2386 98.2386 96 101 96C103.761 96 106 98.2386 106 101C106 103.761 103.761 106 101 106C98.2386 106 96 103.761 96 101Z" fill="#FCB717"/>
<path d="M112 101C112 98.2386 114.239 96 117 96C119.761 96 122 98.2386 122 101C122 103.761 119.761 106 117 106C114.239 106 112 103.761 112 101Z" fill="#FCB717"/>
<path d="M0 117C0 114.239 2.23858 112 5 112C7.76142 112 10 114.239 10 117C10 119.761 7.76142 122 5 122C2.23858 122 0 119.761 0 117Z" fill="#FCB717"/>
<path d="M16 117C16 114.239 18.2386 112 21 112C23.7614 112 26 114.239 26 117C26 119.761 23.7614 122 21 122C18.2386 122 16 119.761 16 117Z" fill="#FCB717"/>
<path d="M32 117C32 114.239 34.2386 112 37 112C39.7614 112 42 114.239 42 117C42 119.761 39.7614 122 37 122C34.2386 122 32 119.761 32 117Z" fill="#FCB717"/>
<path d="M48 117C48 114.239 50.2386 112 53 112C55.7614 112 58 114.239 58 117C58 119.761 55.7614 122 53 122C50.2386 122 48 119.761 48 117Z" fill="#FCB717"/>
<path d="M64 117C64 114.239 66.2386 112 69 112C71.7614 112 74 114.239 74 117C74 119.761 71.7614 122 69 122C66.2386 122 64 119.761 64 117Z" fill="#FCB717"/>
<path d="M80 117C80 114.239 82.2386 112 85 112C87.7614 112 90 114.239 90 117C90 119.761 87.7614 122 85 122C82.2386 122 80 119.761 80 117Z" fill="#FCB717"/>
<path d="M96 117C96 114.239 98.2386 112 101 112C103.761 112 106 114.239 106 117C106 119.761 103.761 122 101 122C98.2386 122 96 119.761 96 117Z" fill="#FCB717"/>
<path d="M112 117C112 114.239 114.239 112 117 112C119.761 112 122 114.239 122 117C122 119.761 119.761 122 117 122C114.239 122 112 119.761 112 117Z" fill="#FCB717"/>
</svg>
