<svg width="19" height="19" viewBox="0 0 19 19" fill="none" xmlns="http://www.w3.org/2000/svg">
<g clip-path="url(#clip0_503_1067)">
<path d="M14.2493 7.91669L10.291 7.91669" stroke="#1C274C" stroke-width="1.5" stroke-linecap="round"/>
<path d="M7.91602 2.375H13.0618C13.4295 2.375 13.6133 2.375 13.7677 2.39532C14.8334 2.53563 15.6721 3.37426 15.8124 4.44C15.8327 4.59433 15.8327 4.77817 15.8327 5.14583" stroke="#1C274C" stroke-width="1.5"/>
<path d="M1.58398 5.50186C1.58398 4.80319 1.58398 4.45386 1.63889 4.16287C1.88057 2.88189 2.88256 1.8799 4.16354 1.63822C4.45453 1.58331 4.80386 1.58331 5.50253 1.58331C5.80865 1.58331 5.96171 1.58331 6.10881 1.59707C6.743 1.65637 7.34456 1.90555 7.83494 2.31205C7.94868 2.40634 8.05691 2.51457 8.27337 2.73103L8.70898 3.16665C9.35481 3.81247 9.67772 4.13538 10.0644 4.35052C10.2768 4.46871 10.5022 4.56204 10.7359 4.62868C11.1615 4.74998 11.6182 4.74998 12.5315 4.74998H12.8273C14.9113 4.74998 15.9532 4.74998 16.6305 5.35914C16.6928 5.41517 16.7521 5.47446 16.8082 5.53676C17.4173 6.21405 17.4173 7.25603 17.4173 9.33999V11.0833C17.4173 14.0689 17.4173 15.5617 16.4898 16.4891C15.5623 17.4166 14.0695 17.4166 11.084 17.4166H7.91732C4.93176 17.4166 3.43897 17.4166 2.51148 16.4891C1.58398 15.5617 1.58398 14.0689 1.58398 11.0833V5.50186Z" stroke="#1C274C" stroke-width="1.5"/>
</g>
<defs>
<clipPath id="clip0_503_1067">
<rect width="19" height="19" fill="white"/>
</clipPath>
</defs>
</svg> 